<svg id="Capa_1" xmlns="http://www.w3.org/2000/svg" viewBox="0 0 250 91.2"><style>.st4{fill:#005425}</style><g id="espigas"><path d="M243.7 51.6c-36.5-18.5-76-30.9-135.9-1.1 60.4-30.6 107.7-34.4 135.9 1.1z" fill="#fc0"/><path d="M243.7 45c-36.5-19.5-76-32-135.9 5.4C168.2 12 215.5 5.3 243.7 45z" fill="#c63"/><path d="M243.7 32.3c-36.5-16.1-76-24.9-135.9 18.1 60.4-44 107.7-55.1 135.9-18.1z" fill="#b7c72c"/><path d="M243.7 19.5c-36.5-12.7-76-17.7-135.9 30.9C168.2.7 215.5-14.9 243.7 19.5z" fill="#007739"/></g><path class="st4" d="M249.4 90.7C182.5 81 110.3 74.4.5 90.1 111.3 74 197.9 72 249.4 90.7z" id="base"/><g id="name"><path class="st4" d="M241.6 70.2h-9.4V45.7c0-.5.1-.9.2-1.4h-6c.1.4.2.9.2 1.4v25.4c0 .5-.1.9-.2 1.3h16.9V70c-.5.1-1 .1-1.7.2zm-176-11.8c0-.5.1-.9.2-1.4H60c.1.4.2.9.2 1.4v11c-1.6.8-3.4 1.2-5.1 1.2-3.1 0-5.5-.9-7.4-2.6-2.2-2.1-3.4-5.2-3.4-9.4 0-2 .3-3.9.9-5.6.4-1.4 1.3-2.7 2.6-3.9 2-1.9 4.6-2.8 7.9-2.8 3 0 6 .9 9.1 2.6v-3.5c-3.3-1-6.4-1.5-9.3-1.5-4.8 0-8.7 1.1-11.6 3.2-3.6 2.6-5.4 6.4-5.4 11.3 0 2.8.6 5.2 1.7 7.3 1.3 2.4 3.3 4.3 5.9 5.5 2.2 1 5 1.6 8.5 1.6 1.9 0 3.6-.1 4.9-.4 1.4-.2 3.6-.8 6.5-1.6-.2-.5-.3-1.1-.3-1.7l-.1-10.7zM41.1 71L27.4 39.1c-.2-.4-.3-.8-.3-1.1h-5.9c0 .4-.1.8-.3 1.3L7.5 71c-.2.5-.5.9-.8 1.4h3.9c0-.5.1-1 .2-1.4l3.9-9.4h15.2l3.9 9.4c.2.5.3 1 .3 1.4h8c-.5-.6-.8-1-1-1.4zM15.8 59.1l6.4-15.6 6.6 15.6h-13zm132.9 12l-13.4-14.9c1.9-.3 3.4-.6 4.5-1 4.3-1.4 6.5-4 6.5-7.9 0-1.7-.5-3.3-1.5-4.6-.9-1.3-2.3-2.4-3.9-3.2-2.1-1-4.6-1.5-7.4-1.5h-12.4c.2.5.3 1.1.3 1.6v31.1c0 .7-.1 1.2-.3 1.7h7.4c-.2-.5-.3-1.1-.3-1.7V56.5L140.6 71c.4.5.7 1 .9 1.5h8.9c-.6-.4-1.2-.8-1.7-1.4zm-20.5-16.5V40.5h2.8c2.4 0 4.3.5 5.6 1.5 1.8 1.4 2.7 3.2 2.7 5.6 0 2.5-1.1 4.4-3.3 5.8-1.3.8-2.9 1.2-4.8 1.2h-3zM89.9 71.3l-11-12.1c1.5-.2 2.7-.5 3.7-.8 3.5-1.1 5.3-3.3 5.3-6.4 0-1.4-.4-2.7-1.2-3.8s-1.8-2-3.2-2.6c-1.7-.8-3.8-1.2-6.1-1.2H67.3c.1.4.2.9.2 1.3v25.4c0 .5-.1 1-.2 1.4h6c-.1-.4-.2-.9-.2-1.4V59.4l10.1 11.8c.3.4.5.8.7 1.2h7.3c-.4-.2-.9-.6-1.3-1.1zM73.1 57.8V46.4h2.3c2 0 3.5.4 4.6 1.2 1.5 1.1 2.2 2.6 2.2 4.5 0 2.1-.9 3.6-2.7 4.7-1.1.6-2.4 1-3.9 1h-2.5z"/><path class="st4" d="M115.8 47.3c-2.9-2.3-6.8-3.4-11.7-3.4-7 .1-11.8 2.2-14.4 6.5-1.3 2.2-2 4.8-2 7.7 0 4.7 1.4 8.3 4.2 10.9 2.7 2.6 6.8 3.8 12.1 3.8 5.1 0 9.1-1.2 12-3.6 3-2.5 4.5-6.2 4.5-10.9 0-4.8-1.6-8.5-4.7-11zM114 63.4c-.4 1.4-1 2.6-1.9 3.7-1.8 2.3-4.5 3.5-8 3.5-7 0-10.5-4.2-10.5-12.5 0-3.6.8-6.4 2.4-8.6 1.7-2.3 4.4-3.5 8.1-3.5 7 .1 10.5 4.2 10.5 12.4 0 2-.2 3.6-.6 5zm57.6-17.7v17.1c0 2.5-.8 4.4-2.4 5.7-1.6 1.3-3.9 2-6.9 2-3.5 0-5.9-1-7.5-2.9-.9-1.2-1.4-2.6-1.4-4.2V45.7c0-.5.1-.9.2-1.3h-6c.1.4.2.9.2 1.4v17.7c0 1.7.4 3.2 1.3 4.6.9 1.4 2.1 2.5 3.6 3.3 1.9 1 4.6 1.6 8 1.6 2.4 0 4.5-.3 6.5-.8 2.1-.6 3.7-1.6 5-3.2s1.9-3.5 1.9-5.7V45.7c0-.5.1-1 .2-1.4h-2.9c.1.4.2.8.2 1.4zm53.5 25.5l-11.1-26c-.1-.3-.2-.6-.2-.9h-4.9c0 .3-.1.7-.2 1l-10.6 25.3-10.3-11.4c1.5-.2 2.7-.5 3.7-.8 3.5-1.1 5.3-3.3 5.3-6.4 0-1.4-.4-2.7-1.2-3.8-.8-1.1-1.8-2-3.2-2.6-1.7-.8-3.8-1.2-6.1-1.2h-10.1c.1.4.2.9.2 1.3v25.4c0 .5-.1 1-.2 1.4h6c-.1-.4-.2-.9-.2-1.4V59.4l10.1 11.8c.3.4.5.8.7 1.2h7.4c0-.4.1-.8.2-1.2l3.2-7.6H216l3.2 7.6c.2.4.2.8.2 1.2h6.5c-.4-.4-.6-.8-.8-1.2zM182 57.8V46.4h2.3c2 0 3.5.4 4.6 1.2 1.5 1.1 2.2 2.6 2.2 4.5 0 2.1-.9 3.6-2.7 4.7-1.1.6-2.4 1-3.9 1H182zm22.6 3.7l5.2-12.7 5.4 12.7h-10.6z"/></g></svg>