<svg xmlns="http://www.w3.org/2000/svg" viewBox="0 0 580 580"><path d="M478.5 322.9L291 150.3 103.4 322.9c0 .7-.3 1.5-.3 2.2v174.7c0 12.7 9.5 23.3 20.9 23.3h334c11.4 0 20.9-10.6 20.9-23.3V325c-.1-.7-.1-1.4-.4-2.1zM292.4 457.1c-2.7-1.9-5.3-3.9-8.1-5.6-23.5-14.7-48.2-16-73.6-7.9-6.6 2.1-13 4.8-19.2 8-1.2.6-2.5 1.7-3.7.9-1.3-.9-.7-2.6-.5-4 4.8-31.8 9.6-63.6 14.5-95.5.3-1.8.5-3.7 2.1-4.8 1.5-1.1 3-2.9 4.8-2.1 2 1 .7 3.2.5 4.9-3.3 25.5-6.6 51-9.9 76.4-.8 6.2-.7 6.2 4.6 5 14.7-3.2 29.5-5.5 44.6-3.4 17 2.4 32 9.2 43.3 24.3.3 1.2 1.5 2 .6 3.8zm.2-2.1c-3.9-10.3-11.4-16.6-19.8-21.6-14.4-8.4-29.9-10.7-45.9-9.3-6.5.6-12.9 1.8-19.3 2.8-2.9.5-4.2-.2-3.7-4 3.9-30.3 7.7-60.7 11.4-91 .4-3.4 2-5 4.9-5.7 26.4-6.3 50.4-.8 71.2 18.9 2.3 2.2 3.4 4.6 3.4 8-.1 32.1 0 64.2-.1 96.4-.1 2.1.4 4.5-2.1 5.5zm111.9-2.5c-1.2.8-2.5-.3-3.7-.9-6.2-3.3-12.6-6-19.2-8-25.5-8-50.1-6.7-73.6 7.9-2.8 1.7-5.4 3.7-8.1 5.6-.7-1.5-.1-2.3.4-3.2-.9-1.2-.7-2.9-.7-4.4 0-32.1 0-64.2-.1-96.4 0-3.4 1.1-5.8 3.4-8 20.9-19.8 44.8-25.2 71.2-18.9 2.9.7 4.5 2.3 4.9 5.7 3.7 30.4 7.5 60.7 11.4 91 .5 3.8-.8 4.5-3.7 4-6.4-1-12.9-2.2-19.3-2.8-16-1.4-31.6.8-45.9 9.3-6.1 3.6-11.7 7.9-15.8 13.9 10.5-10.9 23.6-16.2 38.1-18.2 15.1-2.1 29.8.2 44.6 3.4 5.4 1.2 5.4 1.3 4.6-5-3.3-25.5-6.6-51-9.9-76.4-.2-1.6-1.5-3.9.5-4.9 1.8-.9 3.3 1 4.8 2.1s1.8 3 2.1 4.8c4.9 31.8 9.7 63.6 14.5 95.5.2 1.2.8 3-.5 3.9z"/><path d="M531.3 326.9c-1.6 2.2-4.2 3.6-6.8 4h-1c-2.6 0-4.9-.7-6.8-2.6L291 118.3l-225.7 210c-2.3 1.8-4.9 2.9-7.8 2.6-2.6-.4-5.2-1.8-6.8-4l-20.2-27c-3.6-4.7-2.9-12.4 1.3-16.4l234.5-218c13.7-12.8 35.9-12.8 49.6 0l79.6 74.2v-71c0-6.6 4.6-11.6 10.4-11.6h62.7c5.8 0 10.4 5.1 10.4 11.6v148.5l71.4 66.2c4.2 4 4.9 11.6 1.3 16.4l-20.4 27.1z"/></svg>