<svg xmlns="http://www.w3.org/2000/svg" viewBox="0 0 580 580"><path d="M257.8 555.1h54.7v-92.5s164.2 37.7 200.7-153.9c-147-30.6-203.9 31.5-228.1 100.4-27.4-63.9-36.5-127.7-219-100.4 9.1 45.6 54.7 163 191.6 153.9v92.5zm204-377.2c3.3 4.4 10.1 3.1 11.7-2.1l20-69 21.2-73.3c1.2-4.2-2-8.5-6.4-8.5l-76.3.1-71.9.1c-5.5 0-8.6 6.3-5.3 10.6l32.4 43.1c2.2 2.9 1.6 7.1-1.3 9.3l-88.6 66.7c-2.9 2.2-7.1 1.6-9.3-1.3l-60.9-80.8-2.2 1.6-43.2 32.5-114.6 86.3c-2.9 2.2-3.5 6.4-1.3 9.3L92 237.3c2.2 2.9 6.4 3.5 9.3 1.3l109.5-82.4c2.9-2.2 7.1-1.6 9.3 1.3l26.7 35.5 17.1 22.7 13.1 17.4c2.2 2.9 6.4 3.5 9.3 1.3l133.9-100.8c2.9-2.2 7.1-1.6 9.3 1.3l32.3 43z"/></svg>