<svg id="guano_x5F_isla" xmlns="http://www.w3.org/2000/svg" viewBox="0 0 580 580"><style>.st0{fill:#fff}</style><g id="ave_x5F_02"><path id="cuerpo_x5F_02" d="M268.4 521H555c0-94-40-82-40-82-23-41-38.2-37-55-42.4.2-10.8-.1-28.9-3.2-37.7-9-25.1-44.9-37.2-41.7-48.4 3.1-11.3 13.7-51.9-23.9-40.4 0 0-22.9-2-27.9 2.3 7.3 4.1 30.7 11.4 29.9 17.1-1.9 13.9-12.5 16.4-7.3 27.7 0 0-5.2 17.9 12.5 49.2 0 0 8.8 12.7 14.1 24.8-.6 0-1.1.1-1.7.1C184 369 268.4 517.6 268.4 521z"/><circle class="st0" cx="402.7" cy="277.6" r="2.3" id="ojo_x5F_02"/></g><g id="ave_x5F_01"><path id="cuerpo_x5F_01" d="M555 554H27C17 423.3 77.9 412.7 77.9 412.7c31.1-47.7 58.4-75.3 81.8-82.8-.2-15.1.1-40.3 4.5-52.8 12.5-35.1 62.7-52 58.3-67.7-4.4-15.7-19.1-72.5 33.4-56.5 0 0 32.1-2.8 38.9 3.3-10.2 5.7-43 15.9-41.8 24 2.7 19.4 17.4 22.9 10.2 38.7 0 0 7.3 25.1-17.4 68.7 0 0-12.3 17.8-19.7 34.7.8 0 1.5.1 2.3.1 98.9 0 104.5 61 126.5 57.8 81-12 97.5 80.7 152.4 80.4C564 460 554 531 555 554z"/><circle class="st0" cx="239.9" cy="163.4" r="3.2" id="ojo_x5F_01"/></g></svg>