<svg xmlns="http://www.w3.org/2000/svg" viewBox="0 0 580 580"><path d="M30 249.6c37.2-5.5 66.7-17.5 90.7-24.5 24.1-7.1 38.6 1.7 37.9 29.5-.5 17.4-.1 34.8-.1 62 24 .5 81.9-84.2 103-23.2 5.5 15.8 10.4 46.8 43.5 14.8 25.7-24.9 47.6-43.7 74.8-3.2 3 4.5 13.1 15.2 24.8 10.4 0-23.9.2-44.3-.1-64.6-.5-32.2 3.4-40.7 33.6-40.7 22.7 0 37.9 20.3 110.7 32-50.2 12.7-103.2-30.5-122.6-11.4C411 245.5 511 554 283 553c-160.7-.7-167.7-139.7-146-303.8 3-22.7-88 15.5-107 .4zM240.4 74.1s-32.2 62.8 0 63.6c42.6.9 0-63.6 0-63.6zM268.6 24s17.5 35.5-.5 35.6c-23.9.2.5-35.6.5-35.6zm28 17.3s-39.5 77.1 0 78c52.3 1.2 0-78 0-78z"/><path d="M270.8 139s52.5 82.6 7.6 89.2c-68.4 10.1-11.2-87.8-7.6-89.2z"/></svg>