<?xml version="1.0" encoding="utf-8"?>
<!-- Generator: Adobe Illustrator 22.0.1, SVG Export Plug-In . SVG Version: 6.00 Build 0)  -->
<svg version="1.1" id="datos_x5F_institucionales" xmlns="http://www.w3.org/2000/svg" xmlns:xlink="http://www.w3.org/1999/xlink"
	 x="0px" y="0px" viewBox="0 0 580 580" style="enable-background:new 0 0 580 580;" xml:space="preserve">
<g>
	<path id="_x30_2_1_" d="M478.5,322.9L291,150.3L103.4,322.9c0,0.7-0.3,1.5-0.3,2.2v174.7c0,12.7,9.5,23.3,20.9,23.3h125.3h83.5H458
		c11.4,0,20.9-10.6,20.9-23.3V325C478.8,324.3,478.8,323.6,478.5,322.9z M292.4,457.1c-2.7-1.9-5.3-3.9-8.1-5.6
		c-23.5-14.7-48.2-16-73.6-7.9c-6.6,2.1-13,4.8-19.2,8c-1.2,0.6-2.5,1.7-3.7,0.9c-1.3-0.9-0.7-2.6-0.5-4
		c4.8-31.8,9.6-63.6,14.5-95.5c0.3-1.8,0.5-3.7,2.1-4.8c1.5-1.1,3-2.9,4.8-2.1c2,1,0.7,3.2,0.5,4.9c-3.3,25.5-6.6,51-9.9,76.4
		c-0.8,6.2-0.7,6.2,4.6,5c14.7-3.2,29.5-5.5,44.6-3.4c17,2.4,32,9.2,43.3,24.3v0c0,0,0,0,0,0c0,0,0,0,0,0
		C292.1,454.5,293.3,455.3,292.4,457.1z M292.6,455C292.6,455,292.6,455,292.6,455L292.6,455C292.6,455,292.6,455,292.6,455
		c-3.9-10.3-11.4-16.6-19.8-21.6c-14.4-8.4-29.9-10.7-45.9-9.3c-6.5,0.6-12.9,1.8-19.3,2.8c-2.9,0.5-4.2-0.2-3.7-4
		c3.9-30.3,7.7-60.7,11.4-91c0.4-3.4,2-5,4.9-5.7c26.4-6.3,50.4-0.8,71.2,18.9c2.3,2.2,3.4,4.6,3.4,8c-0.1,32.1,0,64.2-0.1,96.4
		C294.6,451.6,295.1,454,292.6,455z M404.5,452.5c-1.2,0.8-2.5-0.3-3.7-0.9c-6.2-3.3-12.6-6-19.2-8c-25.5-8-50.1-6.7-73.6,7.9
		c-2.8,1.7-5.4,3.7-8.1,5.6c-0.7-1.5-0.1-2.3,0.4-3.2c-0.9-1.2-0.7-2.9-0.7-4.4c0-32.1,0-64.2-0.1-96.4c0-3.4,1.1-5.8,3.4-8
		c20.9-19.8,44.8-25.2,71.2-18.9c2.9,0.7,4.5,2.3,4.9,5.7c3.7,30.4,7.5,60.7,11.4,91c0.5,3.8-0.8,4.5-3.7,4
		c-6.4-1-12.9-2.2-19.3-2.8c-16-1.4-31.6,0.8-45.9,9.3c-6.1,3.6-11.7,7.9-15.8,13.9c10.5-10.9,23.6-16.2,38.1-18.2
		c15.1-2.1,29.8,0.2,44.6,3.4c5.4,1.2,5.4,1.3,4.6-5c-3.3-25.5-6.6-51-9.9-76.4c-0.2-1.6-1.5-3.9,0.5-4.9c1.8-0.9,3.3,1,4.8,2.1
		c1.5,1.1,1.8,3,2.1,4.8c4.9,31.8,9.7,63.6,14.5,95.5C405.2,449.8,405.8,451.6,404.5,452.5z"/>
	<path id="_x30_1_1_" d="M531.3,326.9c-1.6,2.2-4.2,3.6-6.8,4c-0.3,0-0.6,0-1,0c-2.6,0-4.9-0.7-6.8-2.6L291,118.3l-225.7,210
		c-2.3,1.8-4.9,2.9-7.8,2.6c-2.6-0.4-5.2-1.8-6.8-4l-20.2-27c-3.6-4.7-2.9-12.4,1.3-16.4l234.5-218c13.7-12.8,35.9-12.8,49.6,0
		l79.6,74.2v-71c0-6.6,4.6-11.6,10.4-11.6h62.7c5.8,0,10.4,5.1,10.4,11.6v148.5l71.4,66.2c4.2,4,4.9,11.6,1.3,16.4L531.3,326.9z"/>
</g>
</svg>
