<?xml version="1.0" encoding="utf-8"?>
<!-- Generator: Adobe Illustrator 22.0.1, SVG Export Plug-In . SVG Version: 6.00 Build 0)  -->
<svg version="1.1" id="dsarrollo_x5F_agrario" xmlns="http://www.w3.org/2000/svg" xmlns:xlink="http://www.w3.org/1999/xlink"
	 x="0px" y="0px" viewBox="0 0 580 580" style="enable-background:new 0 0 580 580;" xml:space="preserve">
<g id="_x30_2">
	<path d="M257.8,555.1h54.7v-92.5c0,0,164.2,37.7,200.7-153.9c-147-30.6-203.9,31.5-228.1,100.4c-27.4-63.9-36.5-127.7-219-100.4
		c9.1,45.6,54.7,163,191.6,153.9V555.1z"/>
</g>
<path id="_x30_1" d="M461.8,177.9c3.3,4.4,10.1,3.1,11.7-2.1l20-69l21.2-73.3c1.2-4.2-2-8.5-6.4-8.5L432,25.1l-71.9,0.1
	c-5.5,0-8.6,6.3-5.3,10.6l32.4,43.1c2.2,2.9,1.6,7.1-1.3,9.3l-88.6,66.7c-2.9,2.2-7.1,1.6-9.3-1.3l-60.9-80.8l-2.2,1.6l-43.2,32.5
	L67.1,193.2c-2.9,2.2-3.5,6.4-1.3,9.3L92,237.3c2.2,2.9,6.4,3.5,9.3,1.3l109.5-82.4c2.9-2.2,7.1-1.6,9.3,1.3l26.7,35.5l17.1,22.7
	l13.1,17.4c2.2,2.9,6.4,3.5,9.3,1.3l133.9-100.8c2.9-2.2,7.1-1.6,9.3,1.3L461.8,177.9z"/>
</svg>
