<?xml version="1.0" encoding="utf-8"?>
<!-- Generator: Adobe Illustrator 22.0.1, SVG Export Plug-In . SVG Version: 6.00 Build 0)  -->
<svg version="1.1" id="infra_x5F_riego" xmlns="http://www.w3.org/2000/svg" xmlns:xlink="http://www.w3.org/1999/xlink" x="0px"
	 y="0px" viewBox="0 0 580 580" style="enable-background:new 0 0 580 580;" xml:space="preserve">
<g id="canal">
	<path d="M30,249.6c37.2-5.5,66.7-17.5,90.7-24.5c24.1-7.1,38.6,1.7,37.9,29.5c-0.5,17.4-0.1,34.8-0.1,62c24,0.5,81.9-84.2,103-23.2
		c5.5,15.8,10.4,46.8,43.5,14.8c25.7-24.9,47.6-43.7,74.8-3.2c3,4.5,13.1,15.2,24.8,10.4c0-23.9,0.2-44.3-0.1-64.6
		c-0.5-32.2,3.4-40.7,33.6-40.7c22.7,0,37.9,20.3,110.7,32c-50.2,12.7-103.2-30.5-122.6-11.4C411,245.5,511,554,283,553
		c-160.7-0.7-167.7-139.7-146-303.8C140,226.5,49,264.7,30,249.6z"/>
</g>
<g id="gotas">
	<path d="M240.4,74.1c0,0-32.2,62.8,0,63.6C283,138.6,240.4,74.1,240.4,74.1z"/>
	<path d="M268.6,24c0,0,17.5,35.5-0.5,35.6C244.2,59.8,268.6,24,268.6,24z"/>
	<path d="M296.6,41.3c0,0-39.5,77.1,0,78C348.9,120.5,296.6,41.3,296.6,41.3z"/>
	<path d="M270.8,139c0,0,52.5,82.6,7.6,89.2C210,238.3,267.2,140.4,270.8,139z"/>
</g>
</svg>
