<svg version="1.1" id="Capa_1" height="55" xmlns="http://www.w3.org/2000/svg" xmlns:xlink="http://www.w3.org/1999/xlink" x="0px" y="0px" viewBox="0 0 297 55" style="enable-background:new 0 0 297 55;" xml:space="preserve">
      <style type="text/css">
        #escudo.st3{fill-rule:evenodd;clip-rule:evenodd;}
        #escudo.st4{fill-rule:evenodd;clip-rule:evenodd;}
        #escudo.st5{fill-rule:evenodd;clip-rule:evenodd;stroke:#211915;stroke-width:0.216;stroke-miterlimit:22.9256;}
        #escudo.st6{fill-rule:evenodd;clip-rule:evenodd;stroke:#211915;stroke-width:0.216;stroke-miterlimit:22.9256;}
        #escudo.st7{fill-rule:evenodd;clip-rule:evenodd;stroke:#211915;stroke-width:0.216;stroke-miterlimit:22.9256;}
        .st8{fill-rule:evenodd;clip-rule:evenodd;stroke:#211915;stroke-width:0.216;stroke-miterlimit:22.9256;}
        .st9{fill-rule:evenodd;clip-rule:evenodd;}
        .st10{fill-rule:evenodd;clip-rule:evenodd;stroke:#211915;stroke-width:0.216;stroke-miterlimit:22.9256;}
        .st11{fill-rule:evenodd;clip-rule:evenodd;stroke:#211915;stroke-width:0.2628;stroke-miterlimit:22.9256;}
        .st12{fill-rule:evenodd;clip-rule:evenodd;}
        .st13{fill-rule:evenodd;clip-rule:evenodd;}
        .st14{fill-rule:evenodd;clip-rule:evenodd;}
        .st15{fill-rule:evenodd;clip-rule:evenodd;}
        .st16{fill-rule:evenodd;clip-rule:evenodd;stroke:#211915;stroke-width:0.216;stroke-miterlimit:22.9256;}
        .st17{fill-rule:evenodd;clip-rule:evenodd;stroke:#807258;stroke-width:0.2582;stroke-miterlimit:22.9256;}
        .st18{fill-rule:evenodd;clip-rule:evenodd;stroke:#009045;stroke-width:0.216;stroke-miterlimit:22.9256;}
        .st19{fill-rule:evenodd;clip-rule:evenodd;stroke:#211915;stroke-width:0.216;stroke-miterlimit:22.9256;}
        .st20{fill-rule:evenodd;clip-rule:evenodd;}
        .st21{fill-rule:evenodd;clip-rule:evenodd;}
        .st22{fill-rule:evenodd;clip-rule:evenodd;}
        .st23{fill-rule:evenodd;clip-rule:evenodd;stroke:#211915;stroke-width:0.216;stroke-miterlimit:22.9256;}
      </style>
      <rect id="gris" x="117.5" y="0" fill="#333333" width="179.1" height="54.7"></rect>
      <rect id="red" x="55.5" y="0.3" fill="#BF0811" width="59.3" height="54.7"></rect>
      <path id="peru" fill="#FFFFFF" d="M75.3,24.8c0,0.6-0.1,1.2-0.3,1.7c-0.2,0.5-0.5,1-0.9,1.3c-0.4,0.4-0.9,0.6-1.5,0.8
        c-0.6,0.2-1.3,0.3-2.1,0.3h-1.5v4.6c0,0.1,0,0.1,0,0.1c0,0-0.1,0.1-0.1,0.1c-0.1,0-0.1,0-0.3,0.1c-0.1,0-0.2,0-0.4,0
        c-0.2,0-0.3,0-0.4,0c-0.1,0-0.2,0-0.3-0.1c-0.1,0-0.1-0.1-0.1-0.1c0,0,0-0.1,0-0.1V21.8c0-0.3,0.1-0.5,0.2-0.6
        c0.1-0.1,0.3-0.2,0.5-0.2h2.8c0.3,0,0.5,0,0.8,0c0.3,0,0.6,0.1,0.9,0.1c0.3,0.1,0.7,0.2,1.1,0.4c0.4,0.2,0.7,0.5,0.9,0.8
        c0.3,0.3,0.4,0.7,0.6,1.1C75.2,23.9,75.3,24.3,75.3,24.8L75.3,24.8z M73.5,25c0-0.5-0.1-1-0.3-1.3c-0.2-0.4-0.4-0.6-0.7-0.8
        c-0.3-0.2-0.6-0.3-0.9-0.3c-0.3,0-0.6-0.1-0.9-0.1h-1.6v5.2h1.5c0.5,0,0.9-0.1,1.3-0.2c0.3-0.1,0.6-0.3,0.9-0.6
        c0.2-0.2,0.4-0.5,0.5-0.8C73.5,25.7,73.5,25.3,73.5,25L73.5,25z M85.1,33.2c0,0.1,0,0.2,0,0.3c0,0.1,0,0.2-0.1,0.2
        c0,0.1-0.1,0.1-0.1,0.1c0,0-0.1,0-0.1,0h-6.2c-0.2,0-0.3-0.1-0.4-0.2c-0.1-0.1-0.2-0.3-0.2-0.5V21.7c0-0.3,0.1-0.4,0.2-0.5
        c0.1-0.1,0.3-0.2,0.4-0.2h6.1c0.1,0,0.1,0,0.1,0c0,0,0.1,0.1,0.1,0.1c0,0.1,0.1,0.1,0.1,0.2c0,0.1,0,0.2,0,0.3c0,0.1,0,0.2,0,0.3
        c0,0.1,0,0.2-0.1,0.2c0,0.1-0.1,0.1-0.1,0.1c0,0-0.1,0-0.1,0h-5v4H84c0.1,0,0.1,0,0.1,0c0,0,0.1,0.1,0.1,0.1c0,0.1,0.1,0.1,0.1,0.2
        c0,0.1,0,0.2,0,0.3c0,0.1,0,0.2,0,0.3c0,0.1,0,0.2-0.1,0.2c0,0.1-0.1,0.1-0.1,0.1c0,0-0.1,0-0.1,0h-4.3v4.6h5.1c0.1,0,0.1,0,0.1,0
        c0,0,0.1,0.1,0.1,0.1c0,0.1,0.1,0.1,0.1,0.2C85.1,33,85.1,33.1,85.1,33.2L85.1,33.2z M96.5,33.7c0,0.1,0,0.1,0,0.1
        c0,0-0.1,0.1-0.1,0.1c-0.1,0-0.2,0-0.3,0.1c-0.1,0-0.3,0-0.5,0c-0.2,0-0.3,0-0.4,0c-0.1,0-0.2,0-0.3-0.1c-0.1,0-0.1-0.1-0.2-0.1
        c0-0.1-0.1-0.1-0.1-0.2l-1.2-3c-0.1-0.3-0.3-0.7-0.4-1c-0.1-0.3-0.3-0.5-0.5-0.7c-0.2-0.2-0.4-0.4-0.7-0.5c-0.3-0.1-0.6-0.2-1-0.2
        h-1.1v5.5c0,0.1,0,0.1,0,0.1c0,0-0.1,0.1-0.1,0.1c-0.1,0-0.1,0-0.3,0.1c-0.1,0-0.2,0-0.4,0c-0.2,0-0.3,0-0.4,0c-0.1,0-0.2,0-0.3-0.1
        c-0.1,0-0.1-0.1-0.1-0.1c0,0,0-0.1,0-0.1V21.7c0-0.3,0.1-0.4,0.2-0.5c0.1-0.1,0.3-0.2,0.4-0.2h2.7c0.3,0,0.6,0,0.8,0
        c0.2,0,0.4,0,0.6,0.1c0.5,0.1,0.9,0.2,1.3,0.4c0.4,0.2,0.7,0.4,1,0.7c0.3,0.3,0.5,0.6,0.6,1c0.1,0.4,0.2,0.8,0.2,1.2
        c0,0.4-0.1,0.8-0.2,1.2c-0.1,0.3-0.3,0.6-0.5,0.9c-0.2,0.3-0.5,0.5-0.8,0.7c-0.3,0.2-0.6,0.4-1,0.5c0.2,0.1,0.4,0.2,0.6,0.4
        c0.2,0.1,0.3,0.3,0.5,0.5c0.1,0.2,0.3,0.4,0.4,0.7c0.1,0.3,0.3,0.5,0.4,0.9l1.2,2.8c0.1,0.2,0.2,0.4,0.2,0.5
        C96.4,33.5,96.5,33.6,96.5,33.7L96.5,33.7z M93.9,24.6c0-0.5-0.1-0.9-0.3-1.3c-0.2-0.3-0.6-0.6-1.1-0.8c-0.2,0-0.4-0.1-0.6-0.1
        c-0.2,0-0.5,0-0.8,0h-1.4v4.3h1.7c0.5,0,0.8-0.1,1.2-0.2c0.3-0.1,0.6-0.3,0.8-0.5c0.2-0.2,0.4-0.4,0.5-0.7
        C93.8,25.2,93.9,24.9,93.9,24.6L93.9,24.6z M108.6,29.2c0,0.8-0.1,1.5-0.3,2.1c-0.2,0.6-0.6,1.1-1,1.6c-0.4,0.4-0.9,0.7-1.6,1
        c-0.6,0.2-1.3,0.3-2.1,0.3c-0.7,0-1.4-0.1-1.9-0.3c-0.6-0.2-1.1-0.5-1.5-0.9c-0.4-0.4-0.7-0.9-1-1.5c-0.2-0.6-0.3-1.3-0.3-2.1v-8
        c0-0.1,0-0.1,0-0.1c0,0,0.1-0.1,0.1-0.1c0.1,0,0.2,0,0.3-0.1c0.1,0,0.2,0,0.4,0c0.2,0,0.3,0,0.4,0c0.1,0,0.2,0,0.3,0.1
        c0.1,0,0.1,0.1,0.1,0.1c0,0,0,0.1,0,0.1v7.8c0,0.6,0.1,1.1,0.2,1.6c0.1,0.4,0.4,0.8,0.6,1.1c0.3,0.3,0.6,0.5,1,0.7
        c0.4,0.1,0.8,0.2,1.3,0.2c0.5,0,0.9-0.1,1.3-0.2c0.4-0.1,0.7-0.4,1-0.7c0.3-0.3,0.5-0.7,0.6-1.1c0.1-0.4,0.2-0.9,0.2-1.5v-7.9
        c0-0.1,0-0.1,0-0.1c0,0,0.1-0.1,0.1-0.1c0.1,0,0.2,0,0.3-0.1c0.1,0,0.2,0,0.4,0c0.2,0,0.3,0,0.4,0c0.1,0,0.2,0,0.3,0.1
        c0.1,0,0.1,0.1,0.1,0.1c0,0,0,0.1,0,0.1V29.2L108.6,29.2z M104.8,17.5c0.1-0.1,0.1-0.2,0.2-0.2c0.1,0,0.1-0.1,0.2-0.1
        c0.1,0,0.2,0,0.3-0.1c0.1,0,0.3,0,0.4,0c0.2,0,0.4,0,0.5,0c0.1,0,0.2,0.1,0.2,0.1c0,0,0.1,0.1,0,0.2c0,0.1-0.1,0.1-0.1,0.2l-2.3,2.1
        c-0.1,0.1-0.1,0.1-0.2,0.2c-0.1,0-0.1,0.1-0.2,0.1c-0.1,0-0.2,0-0.3,0.1c-0.1,0-0.2,0-0.4,0c-0.2,0-0.3,0-0.4,0
        c-0.1,0-0.1,0-0.2-0.1c0,0,0-0.1,0-0.1c0-0.1,0-0.1,0.1-0.2L104.8,17.5z"></path>
      <rect id="black_x5F_01" x="0.2" y="0.3" fill="#FFFFFF" width="55.9" height="54.7"></rect>
      <g id="escudo">
        <path fill="#211915" d="M27.9,43.4L17.6,19l-8.5-7.1l0.3,24.4C9.5,41.6,15.1,49.7,27.9,43.4z"></path>
        <path fill="#BF0811" d="M28.6,43L18.1,19l-8.7-7l0.3,24C9.8,41.2,15.5,49.2,28.6,43z"></path>
        <path fill="#211915" d="M13.3,15.2L9.1,12l0.1-0.2c0,0,2.4,1.9,4.3,3.3C13.5,15.1,13.3,15.1,13.3,15.2z"></path>
        <path fill="#211915" d="M9.1,11.2l-0.8-0.4l0,0.9c0,0,0,0,0,0v0L9.1,12L9.1,11.2z"></path>
        <path fill="#FEEE00" d="M9.1,12L9,11.2l-0.7-0.4l0,0.9C8.3,11.8,9.1,11.9,9.1,12z"></path>
        <path fill="#FEEE00" d="M9.1,12l-0.8-1.2l0,0.9C8.3,11.8,9.1,11.9,9.1,12z"></path>
        <path fill="#211915" d="M9.1,11.7c0.1,0,0.3,0.1,0.3,0.3c0,0.1-0.1,0.3-0.3,0.3c-0.1,0-0.3-0.1-0.3-0.3C8.9,11.8,9,11.7,9.1,11.7z"></path>
        <path fill="#FEEE00" d="M9.1,11.8c0.1,0,0.2,0.1,0.2,0.2c0,0.1-0.1,0.2-0.2,0.2c-0.1,0-0.2-0.1-0.2-0.2C8.9,11.8,9,11.8,9.1,11.8z"></path>
        <path fill="#FFFFFF" d="M9.6,26.7c0.6,0.5,1.6,0.2,1.8,1.1c0.1,0.5,0.8,0.5,1,0.9c0.5,1.1,1.4,0.6,1.7,1c0.4,0.6,1.2,1.1,1.8,1
          c0.7-0.2,1.4,0.6,2.1,1c1.2,0.8,2.4,0.5,2.4,3.3c0,1.1,0.1,2.5-0.3,3c-0.7,1-2,0.9-3.4,1.2c-0.3,0.1-1.4-1.1-2.5-0.8
          c-0.5,0.1-1-0.2-1.6-0.1c-0.7,0.1-1.4,0.1-1.7-0.6c-0.4-0.8-1.1-0.9-1.1-1.2C9.7,34.3,9.6,28.7,9.6,26.7z"></path>
        <path fill="#211915" d="M17.4,28.4c-1.2-0.9-5.9-2.9-6.6-4.3c-0.7-1.4,0.5-3.3,0.2-2.3c-0.4,1.3,3.9,3.1,5.1,3.6c0.5,0.2,2,0.7,2,1.4
          c0,0.1-0.2,0.6-0.2,0.7C17.9,28,17.4,28.3,17.4,28.4z"></path>
        <path fill="#FEEE00" d="M17.7,28.2c-1.2-1-6.1-3.1-6.8-4.6c-0.7-1.5,0.5-3.6,0.2-2.4c-0.4,1.4,4,3.4,5.2,3.9c0.5,0.2,2,0.8,2,1.5
          c0,0.1-0.2,0.6-0.2,0.8C18.2,27.8,17.7,28.1,17.7,28.2z"></path>
        <path fill="#BF0811" d="M19.6,28.3c0.1-5.1,1-10.6,0.4-12.8c-2.7-1.8-4.4-3.1-6-4.7c-0.2-0.2-2.4,8.6-3.1,10.6
          C11.8,23.9,15.7,24.7,19.6,28.3z"></path>
        <path fill="#FFFFFF" d="M17.6,18c-0.3-0.2-1.2-1-1.5-1.1c-0.9-0.4-2.6-2-3-1.6c-0.8,0.7-0.9,1.9-1.1,2.8c-0.1,0.5,0.3,0.5,0.7,0.6
          c0.6,0.3,0.9,0.6,1.5,0.7c1.6,0.2,2.5,1.5,3.4,1.1c0.3-0.2,0.2-1.4,0.6-1.6C18.7,18.6,17.9,18.4,17.6,18z"></path>
        <path fill="#BF9262" d="M19.9,22c0,0.1-0.1,0.3-0.2,0.5c0.1,0,0.2,0,0.2-0.2c-0.1,0.2-0.1,0.3-0.2,0.4c0.1,0,0.1,0,0.2-0.1
          c0,0,0,0.1,0,0.1c0,0.1-0.1,0.2-0.1,0.3c-0.1,0-0.1,0.2-0.1,0.3c-0.1-0.2-0.2-0.4-0.1-0.8c-0.1-0.1,0-0.3,0.1-0.4
          c0,0-0.1,0.1-0.1,0.1c0-0.2,0.1-0.4,0.2-0.6c0.1-0.1,0.2-0.1,0.3,0.1c0,0.1,0,0.1-0.2,0.2C19.8,22,19.8,22,19.9,22z"></path>
        <path fill="#211915" d="M13.9,10.9c1,2.8,1,7.7,1.8,10.8c0,0.2,0.1,0.9,0.2,1c0,0-0.4-0.5-0.6-0.6c-0.6-0.4-2.3-1.6-3.8-0.8
          c-0.1,0.1-0.2,0.2-0.3,0.2c-0.1,0.1-0.2,0.2-0.2,0.2c-0.1-0.2-0.1-0.3,0.1-0.5c0.2-0.9,0.4-1.8,0.6-2.8c0.1-0.5,0.2-0.9,0.3-1.4
          C12.7,14.2,13.4,11.6,13.9,10.9z"></path>
        <path fill="#211915" d="M19.7,15.5l-6-4.7l0.1-0.3c0-0.1,3.4,2.7,6.2,4.7C20.1,15.3,19.8,15.3,19.7,15.5z"></path>
        <path fill="none" d="M17.2,26.8c0,0.1,0,0.2,0,0.3c0,0.1,0,0.1,0,0.2c0,0,0,0.1,0,0.1c0,0,0,0.1,0,0.2c0,0,0,0.1,0,0.1
          c0,0.1,0,0.2,0.1,0"></path>
        <path fill="none" d="M16.6,26.5c0,0.1,0,0.2,0,0.3c0,0.1,0,0.1,0,0.2c0,0,0,0.1,0,0.1c0,0,0,0.1,0,0.2c0,0,0,0.1,0,0.1
          c0,0.1,0,0.2,0,0"></path>
        <path fill="none" d="M16.1,26.1c0,0.1,0,0.2,0,0.3c0,0.1,0,0.1,0,0.2c0,0,0,0.1,0,0.1c0,0,0,0.1,0,0.2c0,0,0,0.1,0,0.1
          c0,0.1,0,0.2,0.1,0"></path>
        <path fill="none" d="M15.6,25.9c0,0-0.1,0.1-0.1,0.1"></path>
        <polyline fill="none" points="15.5,26.1 15.5,26.1 15.5,26.2 15.5,26.2 15.5,26.2 15.5,26.2 15.5,26.3 15.5,26.3 15.5,26.3 
          15.5,26.3 15.5,26.4 15.5,26.5 	"></polyline>
        <path fill="none" d="M15.5,26.5c0,0,0,0.1,0,0.1"></path>
        <polyline fill="none" points="15.5,26.6 15.5,26.6 15.5,26.7 	"></polyline>
        <path fill="none" d="M15.5,26.7C15.5,26.8,15.5,26.8,15.5,26.7"></path>
        <polyline fill="none" points="15.5,26.8 15.5,26.8 15.5,26.9 15.5,26.9 	"></polyline>
        <path fill="none" d="M15.5,26.9c0,0,0,0.1,0,0.1"></path>
        <polyline fill="none" points="14.7,25.4 14.6,25.6 14.7,25.6 14.7,25.7 14.7,25.7 14.6,25.7 14.6,25.8 14.6,25.8 14.6,25.8 
          14.6,25.8 14.6,25.9 	"></polyline>
        <path fill="none" d="M14.6,25.9C14.6,25.9,14.6,25.9,14.6,25.9c0,0.1,0,0.2,0,0.2"></path>
        <polyline fill="none" points="14.6,26.1 14.6,26.1 14.6,26.2 14.6,26.2 14.6,26.3 14.6,26.3 14.6,26.3 	"></polyline>
        <path fill="none" d="M14.6,26.3c0,0,0,0.1,0,0.1"></path>
        <path fill="none" d="M13.9,24.8c-0.1,0-0.1,0.1-0.1,0.2c0,0.4,0,0.8,0,1.1"></path>
        <polyline fill="none" points="14.2,25.1 14.2,25.2 14.2,25.2 14.2,25.3 14.2,25.3 14.2,25.3 14.2,25.3 14.2,25.4 	"></polyline>
        <path fill="none" d="M14.2,25.4C14.2,25.4,14.2,25.4,14.2,25.4c0,0.1,0,0.2,0,0.2"></path>
        <polyline fill="none" points="14.2,25.6 14.2,25.7 14.2,25.7 	"></polyline>
        <path fill="none" d="M14.2,25.7C14.2,25.7,14.2,25.8,14.2,25.7"></path>
        <polyline fill="none" points="14.2,25.8 14.2,25.8 14.2,25.9 14.2,25.9 14.2,26 	"></polyline>
        <path fill="none" d="M15.1,25.5c0,0.1,0,0.1,0,0.2"></path>
        <polyline fill="none" points="15.1,25.7 15.1,25.8 15.1,25.8 15.1,25.8 15.1,25.8 15.1,25.9 15.1,25.9 15.1,25.9 15.1,25.9 
          15.1,26 	"></polyline>
        <path fill="none" d="M15.1,26C15.1,26,15.1,26,15.1,26"></path>
        <polyline fill="none" points="15.1,26.1 15.1,26.1 15.1,26.1 	"></polyline>
        <path fill="none" d="M15.1,26.1c0,0,0,0.1,0,0.1"></path>
        <line fill="none" x1="15.1" y1="26.2" x2="15.1" y2="26.3"></line>
        <path fill="none" d="M15.1,26.3C15.1,26.4,15.1,26.3,15.1,26.3"></path>
        <polyline fill="none" points="15.1,26.4 15.1,26.4 15.1,26.4 15.1,26.5 15,26.5 	"></polyline>
        <path fill="none" d="M15,26.5C15,26.5,15,26.6,15,26.5"></path>
        <path fill="none" d="M17.6,26.8c0,0,0,0.1,0,0.1c0,0,0,0.1,0,0.1"></path>
        <polyline fill="none" points="17.6,27 17.5,27.1 17.5,27.1 17.5,27.2 17.5,27.2 17.5,27.2 17.5,27.2 17.5,27.2 17.4,27.2 
          17.4,27.3 17.4,27.3 17.4,27.3 17.4,27.3 17.4,27.4 17.4,27.4 	"></polyline>
        <path fill="none" d="M17.4,27.4c0,0,0,0.1,0,0.1"></path>
        <polyline fill="none" points="17.4,27.5 17.4,27.6 17.4,27.7 17.4,27.7 17.4,27.7 17.4,27.8 17.4,27.8 	"></polyline>
        <path fill="none" d="M17.4,27.8c0,0,0,0.1,0,0.1"></path>
        <path fill="none" d="M13,24.3c0,0,0,0.1,0,0.1"></path>
        <polyline fill="none" points="13,24.4 13,24.4 13,24.5 13,24.5 13,24.5 13,24.6 13,24.6 13,24.6 13,24.7 13,24.7 13,24.7 13,24.8 
            "></polyline>
        <path fill="none" d="M13,24.8c0,0.1,0,0.2,0,0.2c0,0,0,0.1,0,0.1"></path>
        <polyline fill="none" points="13,25.2 13,25.2 13,25.3 13,25.3 13,25.4 13,25.4 	"></polyline>
        <path fill="none" d="M13,25.4c0,0,0,0.1,0,0.1"></path>
        <polyline fill="none" points="13.4,24.7 13.4,24.8 13.4,24.8 13.3,24.8 13.3,24.9 13.3,24.9 13.3,24.9 13.3,24.9 13.3,25 13.3,25 
          13.3,25 13.3,25.1 13.3,25.1 	"></polyline>
        <path fill="none" d="M13.3,25.1c0,0.1,0,0.1,0,0.2"></path>
        <polyline fill="none" points="13.3,25.3 13.3,25.3 13.3,25.4 13.3,25.5 13.3,25.5 13.3,25.6 13.3,25.6 	"></polyline>
        <path fill="none" d="M13.3,25.6C13.3,25.6,13.3,25.7,13.3,25.6"></path>
        <path fill="none" d="M12.5,23.9c0,0.1,0,0.1,0,0.2"></path>
        <polyline fill="none" points="12.4,24 12.4,24.1 12.4,24.1 12.4,24.1 12.4,24.2 12.4,24.2 12.4,24.2 12.4,24.3 12.4,24.3 
          12.4,24.3 12.4,24.4 12.4,24.4 12.4,24.5 12.4,24.5 	"></polyline>
        <path fill="none" d="M12.4,24.5c0,0,0,0.1,0,0.1"></path>
        <line fill="none" x1="12.4" y1="24.6" x2="12.4" y2="24.7"></line>
        <path fill="none" d="M12.4,24.7c0,0,0,0.1,0,0.1"></path>
        <polyline fill="none" points="12.4,24.8 12.4,24.9 12.4,24.9 12.4,24.9 12.4,24.9 	"></polyline>
        <path fill="none" d="M12.4,24.9C12.4,25,12.4,25.1,12.4,24.9"></path>
        <polyline fill="none" points="11.9,23.6 11.9,23.7 11.9,23.7 11.9,23.8 11.9,23.8 11.9,23.9 11.9,23.9 11.9,23.9 11.9,24 11.9,24 
          11.9,24 11.9,24.1 11.9,24.1 	"></polyline>
        <path fill="none" d="M11.9,24.1c0,0,0,0.1,0,0.1"></path>
        <line fill="none" x1="11.8" y1="24.2" x2="11.8" y2="24.3"></line>
        <path fill="none" d="M11.8,24.3C11.8,24.3,11.8,24.4,11.8,24.3c0,0.1,0,0.1,0,0.2"></path>
        <polyline fill="none" points="11.8,24.5 11.8,24.5 11.8,24.5 11.8,24.6 	"></polyline>
        <path fill="none" d="M11.8,24.6C11.8,24.6,11.8,24.6,11.8,24.6"></path>
        <path fill="none" d="M11.3,22.8c0,0-0.1,0.1-0.1,0.1"></path>
        <polyline fill="none" points="11.2,22.9 11.2,22.9 11.2,23 11.1,23 11.1,23 11.1,23.1 11.1,23.1 11.1,23.1 11.1,23.2 11.1,23.2 
          11.1,23.2 11.1,23.3 	"></polyline>
        <path fill="none" d="M11.1,23.3c0,0.1,0,0.1,0,0.2c0,0,0,0.1,0,0.1"></path>
        <polyline fill="none" points="11,23.5 11,23.6 11,23.7 11,23.7 11,23.8 11,23.8 	"></polyline>
        <path fill="none" d="M11,23.8C11,23.9,11,23.9,11,23.8"></path>
        <path fill="none" d="M15.9,25.9c0,0,0,0.1,0,0.1"></path>
        <polyline fill="none" points="15.9,26 15.9,26.1 15.9,26.1 15.9,26.2 15.8,26.2 15.8,26.2 15.8,26.2 15.8,26.3 15.8,26.3 
          15.8,26.3 15.8,26.3 15.8,26.4 15.8,26.4 15.8,26.4 15.8,26.5 	"></polyline>
        <path fill="none" d="M15.8,26.5c0,0,0,0.1,0,0.1"></path>
        <polyline fill="none" points="15.8,26.6 15.8,26.7 15.8,26.7 15.8,26.8 15.8,26.8 15.8,26.9 15.8,26.9 	"></polyline>
        <path fill="none" d="M15.8,26.9C15.8,26.9,15.8,27,15.8,26.9"></path>
        <path fill="none" d="M16.9,26.6c0,0,0.1,0.1,0.1,0.1"></path>
        <line fill="none" x1="17" y1="26.7" x2="17" y2="26.8"></line>
        <path fill="none" d="M17,26.8C17,26.8,17,26.8,17,26.8"></path>
        <polyline fill="none" points="17,26.8 17,26.9 17,26.9 17,26.9 17,27 17,27 17,27 17,27.1 17,27.1 17,27.1 17,27.2 16.9,27.2 
          16.9,27.2 	"></polyline>
        <path fill="none" d="M16.9,27.2C16.9,27.3,16.9,27.3,16.9,27.2c-0.1,0.1-0.1,0.2-0.1,0.2c0,0,0,0.1,0,0.1"></path>
        <polyline fill="none" points="16.8,27.5 16.8,27.5 16.8,27.6 16.8,27.6 16.8,27.6 	"></polyline>
        <path fill="none" d="M16.8,27.6C16.8,27.7,16.8,27.8,16.8,27.6"></path>
        <path fill="none" d="M12.8,24c-0.1,0.2-0.1,0.5-0.1,0.7c0,0.1,0,0.2,0,0.3c0,0.1,0,0.2,0,0.2"></path>
        <path fill="none" d="M12.2,23.5c0,0.2-0.1,0.4-0.1,0.7c0,0.1,0,0.2,0,0.3c0,0,0,0.1,0,0.2c0,0.1,0,0.2,0,0"></path>
        <path fill="none" d="M14.5,25.2c-0.1,0.2-0.1,0.4-0.1,0.6c0,0.1,0,0.2,0,0.2c0,0-0.1,0.2-0.1,0.2"></path>
        <line fill="none" x1="14.3" y1="26.3" x2="14.2" y2="26.3"></line>
        <path fill="none" d="M14.2,26.3c-0.1,0.1,0.1,0-0.3,0.1"></path>
        <path fill="none" d="M11.7,23.3C11.7,23.3,11.6,23.3,11.7,23.3"></path>
        <polyline fill="none" points="11.6,23.3 11.6,23.4 11.6,23.4 11.6,23.4 11.6,23.5 11.6,23.5 11.6,23.5 11.6,23.5 11.6,23.6 
          11.6,23.6 11.6,23.6 11.5,23.7 11.5,23.8 	"></polyline>
        <path fill="none" d="M11.5,23.8c0,0,0,0.1,0,0.1c0,0.1,0,0,0,0.1"></path>
        <polyline fill="none" points="11.5,23.9 11.5,24 11.5,24.1 11.5,24.1 11.5,24.1 11.5,24.2 	"></polyline>
        <path fill="none" d="M11.5,24.2C11.5,24.2,11.5,24.2,11.5,24.2"></path>
        <path fill="none" d="M11.1,22.6c0,0-0.1,0.1-0.1,0.1"></path>
        <polyline fill="none" points="11,22.7 11,22.7 11,22.7 11,22.8 11,22.8 10.9,22.8 10.9,22.8 10.9,22.9 10.9,22.9 10.9,22.9 
          10.9,23 10.9,23 	"></polyline>
        <path fill="none" d="M10.9,23c0,0.1,0,0.1,0,0.2c0,0,0,0.1,0,0.1"></path>
        <polyline fill="none" points="10.9,23.3 10.9,23.4 10.9,23.4 10.9,23.5 10.9,23.5 10.9,23.5 	"></polyline>
        <path fill="none" d="M10.9,23.5C10.9,23.6,10.8,23.6,10.9,23.5"></path>
        <path fill="none" d="M13.6,24.6c0,0.1,0,0.1,0,0.2"></path>
        <polyline fill="none" points="13.6,24.7 13.6,24.8 13.6,24.8 13.6,24.9 13.6,24.9 13.6,24.9 13.6,25 13.6,25 13.6,25 13.6,25 
          13.6,25.1 13.6,25.1 13.6,25.2 13.6,25.2 	"></polyline>
        <path fill="none" d="M13.6,25.2c0,0,0,0.1,0,0.1"></path>
        <line fill="none" x1="13.6" y1="25.3" x2="13.6" y2="25.4"></line>
        <path fill="none" d="M13.6,25.4c0,0,0,0.1,0,0.1"></path>
        <polyline fill="none" points="13.6,25.5 13.6,25.6 13.6,25.6 13.6,25.6 13.6,25.7 	"></polyline>
        <path fill="none" d="M13.6,25.7C13.6,25.7,13.5,25.8,13.6,25.7"></path>
        <path fill="none" d="M14,24.9c0,0.1,0,0.1,0,0.2"></path>
        <polyline fill="none" points="14,25 14,25.1 14,25.1 14,25.2 14,25.2 14,25.2 14,25.3 14,25.3 14,25.3 14,25.3 14,25.4 14,25.4 
          14,25.5 14,25.5 	"></polyline>
        <path fill="none" d="M14,25.5c0,0,0,0.1,0,0.1"></path>
        <line fill="none" x1="14" y1="25.6" x2="14" y2="25.7"></line>
        <path fill="none" d="M14,25.7c0,0,0,0.1,0,0.1"></path>
        <polyline fill="none" points="14,25.8 14,25.9 14,25.9 14,25.9 14,26 	"></polyline>
        <path fill="none" d="M14,26C14,26,14,26.1,14,26"></path>
        <path fill="none" d="M15,25.4c-0.1,0.2-0.1,0.4-0.1,0.6c0,0.1,0,0.2,0,0.2c0,0-0.1,0.2-0.1,0.2"></path>
        <line fill="none" x1="14.7" y1="26.4" x2="14.7" y2="26.5"></line>
        <path fill="none" d="M14.7,26.5c-0.1,0.1,0.1,0-0.3,0.1"></path>
        <path fill="none" d="M15.4,25.7c0,0-0.1,0.1-0.1,0.1"></path>
        <polyline fill="none" points="15.3,25.9 15.3,25.9 15.3,25.9 15.3,26 15.3,26 15.3,26 15.3,26.1 15.3,26.1 15.3,26.1 15.3,26.1 
          15.3,26.2 15.3,26.2 	"></polyline>
        <path fill="none" d="M15.3,26.2c0,0,0,0.1,0,0.1"></path>
        <polyline fill="none" points="15.3,26.3 15.3,26.4 15.3,26.5 	"></polyline>
        <path fill="none" d="M15.3,26.5C15.3,26.5,15.3,26.6,15.3,26.5"></path>
        <polyline fill="none" points="15.3,26.6 15.3,26.6 15.3,26.6 15.3,26.7 	"></polyline>
        <path fill="none" d="M15.3,26.7c0,0,0,0.1,0,0.1"></path>
        <path fill="none" d="M16.4,26.3c0,0.1,0,0.2,0,0.3c0,0.1,0,0.1,0,0.2c0,0,0,0.1,0,0.1c0,0,0,0.1,0,0.2c0,0,0,0.1,0,0.1
          c0,0.1,0,0.2,0,0"></path>
        <path fill="none" d="M11.5,23c0,0-0.1,0.1-0.1,0.1"></path>
        <polyline fill="none" points="11.4,23.1 11.4,23.1 11.4,23.2 11.3,23.2 11.3,23.2 11.3,23.2 11.3,23.3 11.3,23.3 11.3,23.4 
          11.3,23.4 11.3,23.4 11.3,23.5 	"></polyline>
        <path fill="none" d="M11.3,23.5c0,0.1,0,0.1,0,0.2c0,0,0,0.1,0,0.1"></path>
        <polyline fill="none" points="11.2,23.7 11.2,23.8 11.2,23.9 11.2,23.9 11.2,23.9 11.2,24 	"></polyline>
        <path fill="none" d="M11.2,24C11.2,24.1,11.2,24.1,11.2,24"></path>
        <path fill="#211915" d="M10.6,22.8c0,0.1,0.2-0.9,0.3-1.3c0.1-0.2,0.9-1.2,1.3-1.2c0.2,0,0.5-0.1,0.8-0.1c1.1,0,1.6,0.6,2.1,1.1
          c0.1,0.1,0.4,0.3,0.4,0.5c0,0.1,0.2,0.4,0.4,1C14.3,21.5,11,21.3,10.6,22.8z"></path>
        <path fill="#FEEE00" d="M10.6,22.6c0,0.1,0.2-0.8,0.3-1.2c0.1-0.2,0.9-1.1,1.3-1.1c0.2,0,0.5,0,0.8,0c1.1,0,1.6,0.6,2.1,1
          c0.1,0.1,0.4,0.3,0.4,0.4c0,0.1,0.2,0.4,0.2,0.8C14.1,21.3,11,21.2,10.6,22.6z"></path>
        <path fill="#BF0811" d="M13.8,10.8c1,2.9,1,8,1.8,10.9c0,0.1-1.4-1.6-4.1-0.8c-0.2,0.1-0.6,0.5-0.6,0.5C12.5,15.6,12.9,12.8,13.8,10.8
          z"></path>
        <path fill="#FFFFFF" d="M14.7,15.5c0.1,0.6,0.1,1.5,0.2,2.1c0,0.1-2.3-0.5-3.2,0.9c0.3-1.2,0.4-1.9,0.6-2.5c0-0.1,0-0.1,0.1-0.2
          C12.9,15.3,14.7,15.2,14.7,15.5z"></path>
        <path fill="#211915" d="M13.7,9.8l-1.2-0.6l0,1.3c0,0,0,0,0,0l0,0l1.3,0.4L13.7,9.8z"></path>
        <path fill="#FEEE00" d="M13.8,11l-0.1-1.2l-1.1-0.6l0,1.2C12.6,10.6,13.8,10.8,13.8,11z"></path>
        <path fill="#FEEE00" d="M13.8,11l-1.2-1.7l0,1.2C12.6,10.7,13.7,10.8,13.8,11z"></path>
        <path fill="#211915" d="M13.8,10.5c0.2,0,0.4,0.2,0.4,0.4c0,0.2-0.2,0.4-0.4,0.4c-0.2,0-0.4-0.2-0.4-0.4
          C13.5,10.7,13.6,10.5,13.8,10.5z"></path>
        <path fill="#FEEE00" d="M13.8,10.6c0.1,0,0.3,0.1,0.3,0.3c0,0.1-0.1,0.3-0.3,0.3c-0.1,0-0.3-0.1-0.3-0.3
          C13.6,10.7,13.7,10.6,13.8,10.6z"></path>
        <path fill="none" d="M11.1,21.4C11,21.5,11,21.6,11,21.7c0,0.1,0,0.2,0,0.3"></path>
        <path fill="none" d="M11.4,21.3C11.4,21.2,11.4,21.3,11.4,21.3C11.4,21.4,11.3,21.4,11.4,21.3c0,0.1-0.1,0.2-0.1,0.2
          c0,0.1,0,0.1,0,0.2c0,0,0,0.1,0,0.1c0,0,0,0,0,0c0,0,0,0.1,0,0"></path>
        <path fill="none" d="M11.6,21.2c0,0.1-0.1,0.2-0.1,0.3c0,0,0,0.1,0,0.1c0,0.1,0,0.1,0,0.2"></path>
        <path fill="none" d="M12,21c-0.1,0.1-0.1,0.2-0.1,0.4c0,0,0,0.1,0,0.2c0,0-0.1,0.1-0.1,0.1"></path>
        <path fill="none" d="M12.3,21C12.3,20.9,12.2,21,12.3,21c0,0.2,0,0.4,0,0.6"></path>
        <line fill="none" x1="11.8" y1="21.1" x2="11.8" y2="21.2"></line>
        <path fill="none" d="M11.8,21.2c0,0-0.1,0.2-0.1,0.3c0,0,0,0.1,0,0.2c0,0,0,0.2,0,0.1"></path>
        <path fill="none" d="M12.5,21C12.5,20.8,12.5,21,12.5,21c0,0.1,0,0.3,0,0.4c0,0,0,0.1,0,0.2c0,0,0,0,0,0.1c0,0,0,0,0,0
          c0,0,0,0,0,0"></path>
        <path fill="none" d="M12.8,20.9c0,0.1,0,0.3,0,0.5c0,0.1,0,0.1,0,0.2c0,0.1,0,0,0,0c0,0,0,0.1,0,0.1"></path>
        <path fill="none" d="M13,20.9c0,0.1,0,0.3,0,0.4c0,0.1,0,0.1,0,0.2c0,0,0,0.1,0,0.1"></path>
        <line fill="none" x1="13" y1="21.6" x2="13" y2="21.6"></line>
        <path fill="none" d="M13,21.6C13,21.6,13,21.7,13,21.6"></path>
        <path fill="none" d="M13.2,20.9c0,0.1,0,0.3,0,0.4c0,0.1,0,0.1,0,0.2c0,0,0,0.1,0,0.1"></path>
        <line fill="none" x1="13.2" y1="21.6" x2="13.2" y2="21.6"></line>
        <path fill="none" d="M13.2,21.6C13.2,21.6,13.2,21.6,13.2,21.6"></path>
        <path fill="none" d="M13.5,21c0,0.1,0,0.1,0,0.2c0,0.1,0,0.2,0,0.2c0,0,0,0.1,0,0.2c0,0,0,0.1,0,0.1"></path>
        <path fill="none" d="M13.7,21c0,0.1,0,0.3,0,0.4c0,0.1,0,0.2,0,0.3"></path>
        <path fill="none" d="M14,21.1c0,0.2,0,0.3,0,0.5c0,0,0,0.1,0,0.1c0,0,0,0.1,0,0.1c0,0,0,0.1,0,0"></path>
        <path fill="none" d="M14.3,21.2c0,0.2,0,0.5,0,0.7"></path>
        <path fill="none" d="M14.6,21.2c0,0.2,0,0.5,0,0.8"></path>
        <path fill="none" d="M14.9,21.4c0,0.2,0,0.5,0,0.7"></path>
        <path fill="none" d="M15.2,21.5c0,0.1,0,0.3,0,0.5c0,0,0,0.1,0,0.1c0,0,0,0,0,0.1"></path>
        <line fill="none" x1="15.2" y1="22.2" x2="15.2" y2="22.2"></line>
        <path fill="none" d="M15.5,21.7C15.4,21.7,15.4,21.7,15.5,21.7c-0.1,0.1-0.1,0.2-0.1,0.2c0,0,0,0.1,0,0.1c0,0,0,0.1,0,0.1
          c0,0,0,0.1,0,0.1c0,0.1,0,0.1,0,0.1"></path>
        <path fill="none" d="M10.5,25.8c-0.3,0.7-0.2,2-0.2,2.9c0,1,0,2,0,2.9"></path>
        <path fill="none" d="M11.8,26.9c-0.7,0.9-0.5,3.7-0.5,5"></path>
        <path fill="none" d="M13.4,27.1c0.2,0.8,0.5,2.3,0.1,3.1c0,0.1-0.1,0.6-0.1,0.8c0,0.1,0,1.1,0,0.8"></path>
        <path fill="none" d="M12.7,27.1c-0.1,0.7,0,1.6,0,2.3c0,0.3-0.2,0.7-0.2,1c0,0.2,0,0.4,0,0.6"></path>
        <path fill="none" d="M14.4,28.2c0.1,0.5,0.1,1.1,0.2,1.7c0.1,0.5,0,1,0,1.5c0,0.2,0.2,1-0.2,0.9"></path>
        <path fill="none" d="M15.5,28.9c0,0.5,0.1,1,0.2,1.5c0,0.1,0,0.5,0,0.6"></path>
        <line fill="none" x1="15.7" y1="31" x2="15.7" y2="31.1"></line>
        <path fill="none" d="M15.7,31.1c0,0-0.1,0.6-0.1,0.6"></path>
        <line fill="none" x1="15.7" y1="31.7" x2="15.7" y2="31.8"></line>
        <path fill="none" d="M15.7,31.8c0,0.2,0.1,0.6-0.1,0.6"></path>
        <path fill="none" d="M10.6,35.2c0,0.8,0,2.2,0.2,2.8c0.2,0.4,0.4,0.9,0.4,1.3c0,0.1,0.2,0.4,0.2,0.5c0,0.1,0.1,0.1,0.1,0.1
          c0.1,0,0.2,0.1,0.2-0.1"></path>
        <path fill="none" d="M11.7,35.6c0.3,1.1,0.4,2.3,0.6,3.4c0.1,0.4,0.3,0.8,0.5,1.2c0.1,0.1,0.5,0.7,0.6,0.7"></path>
        <path fill="none" d="M13.6,35.7c0.1,0.7,0.2,1.9,0.5,2.5c0.1,0.3,0.2,0.7,0.3,1c0.1,0.3,0.3,0.6,0.3,0.8c0,0.2,0.1,0.6,0.2,0.8
          c0,0.1,0.3,0.4,0.3,0.5c0,0.1,0.2,0.3,0.1,0.1"></path>
        <path fill="none" d="M14.7,36.8c0.1,0.3,0.2,0.8,0.3,1.1c0.1,0.4,0.5,0.8,0.6,1.1c0.1,0.5,0.5,0.8,0.6,1.1
          c0.1,0.3,0.3,0.9,0.5,1.3"></path>
        <path fill="none" d="M12.6,36.3c0.3,0.8,0.4,1.8,0.6,2.6c0.1,0.3,0.3,0.6,0.5,0.9c0.1,0.1,0.5,0.5,0.6,0.5"></path>
        <path fill="#211915" d="M28.2,43.5l10.3-24.4l8.5-7.1l-0.3,24.4C46.7,41.7,41,49.8,28.2,43.5z"></path>
        <path fill="#BF0811" d="M27.5,43.1L38.1,19l8.7-7l-0.3,24C46.4,41.3,40.6,49.3,27.5,43.1z"></path>
        <path fill="#211915" d="M42.9,15.3l4.2-3.3L47,11.9c0,0-2.4,1.9-4.3,3.3C42.6,15.2,42.8,15.1,42.9,15.3z"></path>
        <path fill="#211915" d="M47.1,11.3l0.8-0.4l0,0.9c0,0,0,0,0,0v0L47,12.1L47.1,11.3z"></path>
        <path fill="#FEEE00" d="M47.1,12.1l0.1-0.8l0.8-0.4l0,0.9C47.9,11.8,47.1,12,47.1,12.1z"></path>
        <path fill="#FEEE00" d="M47.1,12.1l0.8-1.2l0,0.9C47.9,11.9,47.1,12,47.1,12.1z"></path>
        <path fill="#211915" d="M47,11.8c-0.1,0-0.3,0.1-0.3,0.3c0,0.1,0.1,0.3,0.3,0.3c0.1,0,0.3-0.1,0.3-0.3C47.3,11.9,47.2,11.8,47,11.8z"></path>
        <path fill="#FEEE00" d="M47,11.9c-0.1,0-0.2,0.1-0.2,0.2c0,0.1,0.1,0.2,0.2,0.2c0.1,0,0.2-0.1,0.2-0.2C47.2,11.9,47.1,11.9,47,11.9z"></path>
        <path fill="#FFFFFF" d="M46.6,26.7c-0.6,0.5-1.6,0.2-1.8,1.1c-0.1,0.5-0.8,0.5-1,0.9c-0.5,1.1-1.4,0.6-1.7,1c-0.4,0.6-1.2,1.1-1.8,1
          c-0.7-0.2-1.4,0.6-2.1,1c-1.2,0.8-2.4,0.5-2.4,3.3c0,1.1-0.1,2.5,0.3,3c0.7,1,2,0.9,3.4,1.2c0.3,0.1,1.4-1.1,2.5-0.8
          c0.5,0.1,1-0.2,1.6-0.1c0.7,0.1,1.4,0.1,1.7-0.6c0.4-0.8,1.1-0.9,1.1-1.2C46.4,34.3,46.6,28.8,46.6,26.7z"></path>
        <path fill="#211915" d="M38.8,28.5c1.2-0.9,5.9-2.9,6.6-4.3c0.7-1.4-0.5-3.3-0.2-2.3c0.4,1.3-3.9,3.1-5.1,3.6c-0.5,0.2-2,0.7-2,1.4
          c0,0.1,0.2,0.6,0.2,0.7C38.3,28.1,38.8,28.4,38.8,28.5z"></path>
        <path fill="#FEEE00" d="M38.5,28.3c1.2-1,6.1-3.1,6.8-4.6c0.7-1.5-0.5-3.6-0.2-2.4c0.4,1.4-4,3.4-5.2,3.9c-0.5,0.2-2,0.8-2,1.5
          c0,0.1,0.2,0.6,0.2,0.8C38,27.9,38.5,28.2,38.5,28.3z"></path>
        <path fill="#BF0811" d="M36.5,28.4c-0.1-5.1-1-10.6-0.4-12.8c2.7-1.8,4.4-3.1,6-4.7c0.2-0.2,2.4,8.6,3.1,10.6
          C44.4,24,40.5,24.8,36.5,28.4z"></path>
        <path fill="#FFFFFF" d="M38.6,18.1c0.3-0.1,1.2-1,1.5-1.1c0.9-0.4,2.6-2,3-1.6c0.8,0.7,0.9,1.9,1.1,2.8c0.1,0.5-0.3,0.5-0.7,0.6
          c-0.6,0.3-0.9,0.6-1.5,0.7c-1.6,0.2-2.5,1.5-3.4,1.1c-0.3-0.2-0.2-1.4-0.6-1.6C37.5,18.7,38.3,18.5,38.6,18.1z"></path>
        <path fill="#BF9262" d="M36.3,22.1c0,0.1,0.1,0.3,0.2,0.5c-0.1,0-0.2,0-0.2-0.1c0.1,0.2,0.1,0.3,0.2,0.4c-0.1,0-0.1,0-0.2-0.1
          c0,0,0,0.1,0,0.1c0,0.1,0.1,0.2,0.1,0.3c0.1,0,0.1,0.2,0.1,0.3c0.1-0.2,0.2-0.4,0.1-0.8c0.1-0.1,0-0.3-0.1-0.4c0,0,0.1,0.1,0.1,0.1
          c0-0.2-0.1-0.4-0.2-0.6c-0.1-0.1-0.2-0.1-0.3,0.1c0,0.1,0,0.1,0.2,0.2C36.4,22,36.4,22.1,36.3,22.1z"></path>
        <path fill="#211915" d="M42.2,11c-1,2.8-1,7.7-1.8,10.8c0,0.2-0.1,0.9-0.2,1c0,0,0.4-0.5,0.6-0.6c0.6-0.4,2.3-1.6,3.8-0.8
          c0.1,0.1,0.2,0.2,0.3,0.2c0.1,0.1,0.2,0.2,0.2,0.2c0.1-0.2,0.1-0.3-0.1-0.5c-0.2-0.9-0.4-1.8-0.6-2.8c-0.1-0.5-0.2-0.9-0.3-1.4
          C43.5,14.3,42.8,11.7,42.2,11z"></path>
        <path fill="#211915" d="M36.4,15.6l6-4.7l-0.1-0.3c0-0.1-3.4,2.7-6.2,4.7C36.1,15.4,36.3,15.4,36.4,15.6z"></path>
        <path fill="none" d="M39,26.9c0,0.1,0,0.2,0,0.3c0,0.1,0,0.1,0,0.2c0,0,0,0.1,0,0.1c0,0,0,0.1,0,0.2c0,0,0,0.1,0,0.1
          c0,0.1,0,0.2-0.1,0"></path>
        <path fill="none" d="M39.5,26.5c0,0.1,0,0.2,0,0.3c0,0.1,0,0.1,0,0.2c0,0,0,0.1,0,0.1c0,0,0,0.1,0,0.2c0,0,0,0.1,0,0.1
          c0,0.1,0,0.2-0.1,0"></path>
        <path fill="none" d="M40,26.2c0,0.1,0,0.2,0,0.3c0,0.1,0,0.1,0,0.2c0,0,0,0.1,0,0.1c0,0,0,0.1,0,0.2c0,0,0,0.1,0,0.1
          c0,0.1,0,0.2,0,0"></path>
        <path fill="none" d="M40.6,26c0,0,0.1,0.1,0.1,0.1"></path>
        <polyline fill="none" points="40.7,26.2 40.7,26.2 40.7,26.2 40.7,26.3 40.7,26.3 40.7,26.3 40.7,26.3 40.7,26.4 40.7,26.4 
          40.7,26.4 40.7,26.5 40.7,26.5 	"></polyline>
        <path fill="none" d="M40.7,26.5c0,0,0,0.1,0,0.1"></path>
        <polyline fill="none" points="40.7,26.6 40.7,26.7 40.7,26.8 	"></polyline>
        <path fill="none" d="M40.7,26.8C40.7,26.8,40.7,26.9,40.7,26.8"></path>
        <polyline fill="none" points="40.7,26.9 40.7,26.9 40.7,26.9 40.7,27 	"></polyline>
        <path fill="none" d="M40.7,27c0,0,0,0.1,0,0.1"></path>
        <polyline fill="none" points="41.4,25.5 41.5,25.7 41.5,25.7 41.5,25.7 41.5,25.8 41.5,25.8 41.5,25.8 41.5,25.9 41.5,25.9 
          41.5,25.9 41.5,26 	"></polyline>
        <path fill="none" d="M41.5,26C41.5,26,41.5,26,41.5,26c0,0.1,0,0.2,0,0.2"></path>
        <polyline fill="none" points="41.5,26.1 41.5,26.2 41.5,26.3 41.5,26.3 41.5,26.4 41.5,26.4 41.5,26.4 	"></polyline>
        <path fill="none" d="M41.5,26.4c0,0,0,0.1,0,0.1"></path>
        <path fill="none" d="M42.3,24.9c0.1,0,0.1,0.1,0.1,0.2c0,0.4,0,0.8,0,1.1"></path>
        <polyline fill="none" points="41.9,25.2 41.9,25.3 41.9,25.3 41.9,25.3 42,25.4 42,25.4 42,25.4 42,25.5 	"></polyline>
        <path fill="none" d="M42,25.5C42,25.5,42,25.5,42,25.5c0,0.1,0,0.2,0,0.2"></path>
        <polyline fill="none" points="42,25.7 42,25.7 42,25.8 	"></polyline>
        <path fill="none" d="M42,25.8C42,25.8,42,25.9,42,25.8"></path>
        <polyline fill="none" points="42,25.9 42,25.9 42,26 42,26 42,26.1 	"></polyline>
        <path fill="none" d="M41,25.6c0,0.1,0,0.1,0,0.2"></path>
        <polyline fill="none" points="41.1,25.8 41.1,25.8 41.1,25.9 41.1,25.9 41.1,25.9 41.1,26 41.1,26 41.1,26 41.1,26 41.1,26.1 	"></polyline>
        <path fill="none" d="M41.1,26.1C41.1,26.1,41.1,26.1,41.1,26.1"></path>
        <polyline fill="none" points="41.1,26.1 41.1,26.2 41.1,26.2 	"></polyline>
        <path fill="none" d="M41.1,26.2c0,0,0,0.1,0,0.1"></path>
        <line fill="none" x1="41.1" y1="26.3" x2="41.1" y2="26.4"></line>
        <path fill="none" d="M41.1,26.4C41,26.4,41.1,26.4,41.1,26.4"></path>
        <polyline fill="none" points="41.1,26.4 41.1,26.5 41.1,26.5 41.1,26.5 41.1,26.5 	"></polyline>
        <path fill="none" d="M41.1,26.5C41.1,26.6,41.2,26.7,41.1,26.5"></path>
        <path fill="none" d="M38.5,26.9c0,0,0,0.1,0,0.1c0,0,0,0.1,0,0.1"></path>
        <polyline fill="none" points="38.6,27.1 38.6,27.2 38.6,27.2 38.6,27.2 38.7,27.2 38.7,27.3 38.7,27.3 38.7,27.3 38.7,27.3 
          38.7,27.3 38.7,27.4 38.7,27.4 38.7,27.4 38.8,27.5 38.8,27.5 	"></polyline>
        <path fill="none" d="M38.8,27.5c0,0,0,0.1,0,0.1"></path>
        <polyline fill="none" points="38.8,27.6 38.8,27.7 38.8,27.8 38.8,27.8 38.8,27.8 38.8,27.9 38.8,27.9 	"></polyline>
        <path fill="none" d="M38.8,27.9c0,0,0,0.1,0,0.1"></path>
        <path fill="none" d="M43.1,24.4c0,0,0,0.1,0,0.1"></path>
        <polyline fill="none" points="43.2,24.5 43.2,24.5 43.2,24.5 43.2,24.6 43.2,24.6 43.2,24.7 43.2,24.7 43.2,24.7 43.2,24.7 
          43.2,24.8 43.2,24.8 43.2,24.9 	"></polyline>
        <path fill="none" d="M43.2,24.9c0,0.1,0,0.2,0,0.2c0,0,0,0.1,0,0.1"></path>
        <polyline fill="none" points="43.2,25.3 43.2,25.3 43.2,25.4 43.2,25.4 43.2,25.4 43.2,25.5 	"></polyline>
        <path fill="none" d="M43.2,25.5c0,0,0,0.1,0,0.1"></path>
        <polyline fill="none" points="42.8,24.7 42.8,24.9 42.8,24.9 42.8,24.9 42.8,24.9 42.8,25 42.8,25 42.8,25 42.8,25 42.8,25.1 
          42.9,25.1 42.9,25.2 42.9,25.2 	"></polyline>
        <path fill="none" d="M42.9,25.2c0,0.1,0,0.1,0,0.2"></path>
        <polyline fill="none" points="42.9,25.3 42.9,25.4 42.9,25.5 42.9,25.6 42.9,25.6 42.9,25.6 42.9,25.7 	"></polyline>
        <path fill="none" d="M42.9,25.7C42.9,25.7,42.9,25.7,42.9,25.7"></path>
        <path fill="none" d="M43.7,23.9c0,0.1,0,0.1,0,0.2"></path>
        <polyline fill="none" points="43.7,24.1 43.7,24.2 43.7,24.2 43.8,24.2 43.8,24.3 43.7,24.3 43.7,24.3 43.7,24.3 43.7,24.4 
          43.7,24.4 43.7,24.4 43.7,24.5 43.7,24.6 43.7,24.6 	"></polyline>
        <path fill="none" d="M43.7,24.6c0,0,0,0.1,0,0.1"></path>
        <line fill="none" x1="43.7" y1="24.7" x2="43.7" y2="24.8"></line>
        <path fill="none" d="M43.7,24.8c0,0,0,0.1,0,0.1"></path>
        <polyline fill="none" points="43.7,24.9 43.7,24.9 43.7,25 43.7,25 43.7,25 	"></polyline>
        <path fill="none" d="M43.7,25C43.7,25.1,43.8,25.2,43.7,25"></path>
        <polyline fill="none" points="44.3,23.7 44.3,23.8 44.3,23.8 44.3,23.9 44.3,23.9 44.3,23.9 44.3,24 44.3,24 44.3,24.1 44.3,24.1 
          44.3,24.1 44.3,24.2 44.3,24.2 	"></polyline>
        <path fill="none" d="M44.3,24.2c0,0,0,0.1,0,0.1"></path>
        <line fill="none" x1="44.3" y1="24.3" x2="44.3" y2="24.4"></line>
        <path fill="none" d="M44.3,24.4C44.3,24.4,44.3,24.5,44.3,24.4c0,0.1,0,0.1,0,0.2"></path>
        <polyline fill="none" points="44.3,24.6 44.3,24.6 44.3,24.6 44.3,24.6 	"></polyline>
        <path fill="none" d="M44.3,24.6C44.3,24.7,44.4,24.7,44.3,24.6"></path>
        <path fill="none" d="M44.9,22.9c0,0,0.1,0.1,0.1,0.1"></path>
        <polyline fill="none" points="45,23 45,23 45,23.1 45,23.1 45,23.1 45,23.1 45,23.2 45.1,23.2 45.1,23.2 45.1,23.3 45.1,23.3 
          45.1,23.4 	"></polyline>
        <path fill="none" d="M45.1,23.4c0,0.1,0,0.1,0,0.2c0,0,0,0.1,0,0.1"></path>
        <polyline fill="none" points="45.1,23.6 45.1,23.7 45.1,23.8 45.1,23.8 45.1,23.8 45.1,23.9 	"></polyline>
        <path fill="none" d="M45.1,23.9C45.1,23.9,45.2,24,45.1,23.9"></path>
        <path fill="none" d="M40.2,26c0,0,0,0.1,0,0.1"></path>
        <polyline fill="none" points="40.3,26.1 40.3,26.2 40.3,26.2 40.3,26.2 40.3,26.3 40.3,26.3 40.4,26.3 40.4,26.3 40.4,26.4 
          40.4,26.4 40.4,26.4 40.4,26.5 40.4,26.5 40.4,26.5 40.4,26.6 	"></polyline>
        <path fill="none" d="M40.4,26.6c0,0,0,0.1,0,0.1"></path>
        <polyline fill="none" points="40.4,26.7 40.4,26.7 40.4,26.8 40.4,26.9 40.4,26.9 40.4,26.9 40.4,27 	"></polyline>
        <path fill="none" d="M40.4,27C40.4,27,40.4,27,40.4,27"></path>
        <path fill="none" d="M39.2,26.7c0,0-0.1,0.1-0.1,0.1"></path>
        <line fill="none" x1="39.2" y1="26.8" x2="39.2" y2="26.8"></line>
        <path fill="none" d="M39.2,26.8C39.2,26.9,39.2,26.9,39.2,26.8"></path>
        <polyline fill="none" points="39.2,26.9 39.2,27 39.2,27 39.2,27 39.2,27.1 39.2,27.1 39.2,27.1 39.2,27.1 39.2,27.2 39.2,27.2 
          39.2,27.2 39.2,27.3 39.2,27.3 	"></polyline>
        <path fill="none" d="M39.2,27.3C39.2,27.4,39.3,27.4,39.2,27.3c0.1,0.1,0.1,0.2,0.1,0.2c0,0,0,0.1,0,0.1"></path>
        <polyline fill="none" points="39.4,27.6 39.4,27.6 39.4,27.7 39.4,27.7 39.4,27.7 	"></polyline>
        <path fill="none" d="M39.4,27.7C39.4,27.8,39.4,27.8,39.4,27.7"></path>
        <path fill="none" d="M43.4,24c0.1,0.2,0.1,0.5,0.1,0.7c0,0.1,0,0.2,0,0.3c0,0.1,0,0.2,0,0.2"></path>
        <path fill="none" d="M43.9,23.6c0,0.2,0.1,0.4,0.1,0.7c0,0.1,0,0.2,0,0.3c0,0,0,0.1,0,0.2c0,0.1,0,0.2,0,0"></path>
        <path fill="none" d="M41.7,25.3c0.1,0.2,0.1,0.4,0.1,0.6c0,0.1,0,0.2,0,0.2c0,0,0.1,0.2,0.1,0.2"></path>
        <line fill="none" x1="41.9" y1="26.3" x2="41.9" y2="26.4"></line>
        <path fill="none" d="M41.9,26.4c0.1,0.1-0.1,0,0.3,0.1"></path>
        <path fill="none" d="M44.4,23.4C44.5,23.4,44.5,23.4,44.4,23.4"></path>
        <polyline fill="none" points="44.5,23.4 44.6,23.4 44.6,23.5 44.6,23.5 44.6,23.5 44.6,23.6 44.6,23.6 44.6,23.6 44.6,23.7 
          44.6,23.7 44.6,23.7 44.6,23.8 44.6,23.8 	"></polyline>
        <path fill="none" d="M44.6,23.8c0,0,0,0.1,0,0.1c0,0.1,0,0,0,0.1"></path>
        <polyline fill="none" points="44.7,24 44.7,24.1 44.7,24.1 44.7,24.2 44.7,24.2 44.7,24.2 	"></polyline>
        <path fill="none" d="M44.7,24.2C44.7,24.3,44.7,24.3,44.7,24.2"></path>
        <path fill="none" d="M45,22.6c0,0,0.1,0.1,0.1,0.1"></path>
        <polyline fill="none" points="45.1,22.8 45.2,22.8 45.2,22.8 45.2,22.8 45.2,22.9 45.2,22.9 45.2,22.9 45.2,23 45.2,23 45.2,23 
          45.3,23.1 45.3,23.1 	"></polyline>
        <path fill="none" d="M45.3,23.1c0,0.1,0,0.1,0,0.2c0,0,0,0.1,0,0.1"></path>
        <polyline fill="none" points="45.3,23.4 45.3,23.5 45.3,23.5 45.3,23.5 45.3,23.6 45.3,23.6 	"></polyline>
        <path fill="none" d="M45.3,23.6C45.3,23.7,45.3,23.7,45.3,23.6"></path>
        <path fill="none" d="M42.6,24.7c0,0.1,0,0.1,0,0.2"></path>
        <polyline fill="none" points="42.6,24.8 42.6,24.9 42.6,24.9 42.6,25 42.6,25 42.6,25 42.6,25 42.6,25.1 42.6,25.1 42.6,25.1 
          42.6,25.2 42.6,25.2 42.6,25.3 42.6,25.3 	"></polyline>
        <path fill="none" d="M42.6,25.3c0,0,0,0.1,0,0.1"></path>
        <line fill="none" x1="42.6" y1="25.4" x2="42.6" y2="25.5"></line>
        <path fill="none" d="M42.6,25.5c0,0,0,0.1,0,0.1"></path>
        <polyline fill="none" points="42.6,25.6 42.6,25.7 42.6,25.7 42.6,25.7 42.6,25.7 	"></polyline>
        <path fill="none" d="M42.6,25.7C42.6,25.8,42.6,25.9,42.6,25.7"></path>
        <path fill="none" d="M42.1,25c0,0.1,0,0.1,0,0.2"></path>
        <polyline fill="none" points="42.2,25.1 42.2,25.2 42.2,25.2 42.2,25.3 42.2,25.3 42.2,25.3 42.2,25.3 42.2,25.4 42.2,25.4 
          42.2,25.4 42.2,25.5 42.2,25.5 42.2,25.6 42.2,25.6 	"></polyline>
        <path fill="none" d="M42.2,25.6c0,0,0,0.1,0,0.1"></path>
        <line fill="none" x1="42.2" y1="25.7" x2="42.2" y2="25.8"></line>
        <path fill="none" d="M42.2,25.8c0,0,0,0.1,0,0.1"></path>
        <polyline fill="none" points="42.2,25.9 42.2,26 42.2,26 42.2,26 42.2,26 	"></polyline>
        <path fill="none" d="M42.2,26C42.2,26.1,42.2,26.2,42.2,26"></path>
        <path fill="none" d="M41.2,25.5c0.1,0.2,0.1,0.4,0.1,0.6c0,0.1,0,0.2,0,0.2c0,0,0.1,0.2,0.1,0.2"></path>
        <line fill="none" x1="41.4" y1="26.5" x2="41.5" y2="26.5"></line>
        <path fill="none" d="M41.5,26.5c0.1,0.1-0.1,0,0.3,0.1"></path>
        <path fill="none" d="M40.7,25.8c0,0,0.1,0.1,0.1,0.1"></path>
        <polyline fill="none" points="40.8,25.9 40.8,26 40.8,26 40.9,26.1 40.9,26.1 40.9,26.1 40.9,26.1 40.9,26.2 40.9,26.2 40.9,26.2 
          40.9,26.3 40.9,26.3 	"></polyline>
        <path fill="none" d="M40.9,26.3c0,0,0,0.1,0,0.1"></path>
        <polyline fill="none" points="40.9,26.4 40.8,26.5 40.8,26.6 	"></polyline>
        <path fill="none" d="M40.8,26.6C40.8,26.6,40.8,26.6,40.8,26.6"></path>
        <polyline fill="none" points="40.8,26.7 40.8,26.7 40.8,26.7 40.8,26.8 	"></polyline>
        <path fill="none" d="M40.8,26.8c0,0,0,0.1,0,0.1"></path>
        <path fill="none" d="M39.7,26.3c0,0.1,0,0.2,0,0.3c0,0.1,0,0.1,0,0.2c0,0,0,0.1,0,0.1c0,0,0,0.1,0,0.2c0,0,0,0.1,0,0.1
          c0,0.1,0,0.2-0.1,0"></path>
        <path fill="none" d="M44.7,23.1c0,0,0.1,0.1,0.1,0.1"></path>
        <polyline fill="none" points="44.8,23.2 44.8,23.2 44.8,23.2 44.8,23.3 44.8,23.3 44.8,23.3 44.8,23.4 44.9,23.4 44.9,23.4 
          44.9,23.5 44.9,23.5 44.9,23.5 	"></polyline>
        <path fill="none" d="M44.9,23.5c0,0.1,0,0.1,0,0.2c0,0,0,0.1,0,0.1"></path>
        <polyline fill="none" points="44.9,23.8 44.9,23.9 44.9,23.9 44.9,24 44.9,24 44.9,24.1 	"></polyline>
        <path fill="none" d="M44.9,24.1C44.9,24.1,45,24.1,44.9,24.1"></path>
        <path fill="#211915" d="M45.5,22.9c0,0.1-0.2-0.9-0.3-1.3c-0.1-0.2-0.9-1.2-1.3-1.2c-0.2,0-0.5-0.1-0.8-0.1c-1.1,0-1.6,0.6-2.1,1.1
          c-0.1,0.1-0.4,0.3-0.4,0.5c0,0.1-0.2,0.4-0.4,1C41.9,21.6,45.1,21.4,45.5,22.9z"></path>
        <path fill="#FEEE00" d="M45.5,22.7c0,0.1-0.2-0.8-0.3-1.2c-0.1-0.2-0.9-1.1-1.3-1.1c-0.2,0-0.5,0-0.8,0c-1.1,0-1.6,0.6-2.1,1
          c-0.1,0.1-0.4,0.3-0.4,0.4c0,0.1-0.2,0.4-0.2,0.8C42.1,21.4,45.1,21.3,45.5,22.7z"></path>
        <path fill="#BF0811" d="M42.4,10.8c-1,2.9-1,8-1.8,10.9c0,0.1,1.4-1.6,4.1-0.8c0.2,0.1,0.6,0.5,0.6,0.5C43.7,15.7,43.2,12.9,42.4,10.8
          z"></path>
        <path fill="#FFFFFF" d="M41.5,15.5c-0.1,0.6-0.1,1.5-0.2,2.1c0,0.1,2.3-0.5,3.2,0.9c-0.3-1.2-0.4-1.9-0.6-2.5c0-0.1,0-0.1-0.1-0.2
          C43.3,15.4,41.5,15.3,41.5,15.5z"></path>
        <path fill="#211915" d="M42.4,9.9l1.2-0.6l0,1.3c0,0,0,0,0,0v0l-1.3,0.4L42.4,9.9z"></path>
        <path fill="#FEEE00" d="M42.4,11l0.1-1.2l1.1-0.6l0,1.2C43.5,10.7,42.4,10.9,42.4,11z"></path>
        <path fill="#FEEE00" d="M42.4,11l1.2-1.7l0,1.2C43.5,10.7,42.4,10.9,42.4,11z"></path>
        <path fill="#211915" d="M42.3,10.6c-0.2,0-0.4,0.2-0.4,0.4c0,0.2,0.2,0.4,0.4,0.4c0.2,0,0.4-0.2,0.4-0.4
          C42.7,10.7,42.5,10.6,42.3,10.6z"></path>
        <path fill="#FEEE00" d="M42.3,10.7c-0.1,0-0.3,0.1-0.3,0.3c0,0.1,0.1,0.3,0.3,0.3c0.1,0,0.3-0.1,0.3-0.3
          C42.6,10.8,42.5,10.7,42.3,10.7z"></path>
        <path fill="none" d="M45.1,21.5c0.1,0.1,0.1,0.2,0.1,0.3c0,0.1,0,0.2,0,0.3"></path>
        <path fill="none" d="M44.8,21.4C44.8,21.3,44.8,21.4,44.8,21.4C44.8,21.4,44.8,21.4,44.8,21.4c0,0.1,0.1,0.2,0.1,0.2
          c0,0.1,0,0.1,0,0.2c0,0,0,0.1,0,0.1c0,0,0,0,0,0.1c0,0,0,0.1,0,0"></path>
        <path fill="none" d="M44.5,21.2c0,0.1,0.1,0.2,0.1,0.3c0,0,0,0.1,0,0.1c0,0.1,0,0.1,0,0.2"></path>
        <path fill="none" d="M44.2,21.1c0.1,0.1,0,0.2,0,0.4c0,0.1,0,0.1,0,0.2c0,0,0,0.1,0.1,0.1"></path>
        <path fill="none" d="M43.9,21.1C43.9,20.9,43.9,21.1,43.9,21.1c0,0.2,0,0.4,0,0.6"></path>
        <line fill="none" x1="44.4" y1="21.2" x2="44.4" y2="21.3"></line>
        <path fill="none" d="M44.4,21.3c0,0,0.1,0.2,0.1,0.3c0,0,0,0.1,0,0.2c0,0,0,0.2,0,0.1"></path>
        <path fill="none" d="M43.6,21C43.7,20.9,43.7,21,43.6,21c0,0.1,0,0.3,0,0.4c0,0,0,0.1,0,0.1c0,0,0,0,0,0.1c0,0,0,0,0,0
          c0,0,0,0,0,0"></path>
        <path fill="none" d="M43.4,20.9c0,0.1,0,0.3,0,0.5c0,0,0,0.1,0,0.2c0,0.1,0,0,0,0c0,0,0,0.1,0,0.1"></path>
        <path fill="none" d="M43.1,21c0,0.1,0,0.3,0,0.4c0,0.1,0,0.1,0,0.2c0,0,0,0.1,0,0.1"></path>
        <line fill="none" x1="43.2" y1="21.6" x2="43.2" y2="21.7"></line>
        <path fill="none" d="M43.2,21.7C43.2,21.7,43.2,21.7,43.2,21.7"></path>
        <path fill="none" d="M42.9,21c0,0.1,0,0.3,0,0.4c0,0,0,0.1,0,0.2c0,0,0,0.1,0,0.1"></path>
        <line fill="none" x1="42.9" y1="21.7" x2="42.9" y2="21.7"></line>
        <path fill="none" d="M42.9,21.7C42.9,21.7,43,21.7,42.9,21.7"></path>
        <path fill="none" d="M42.7,21.1c0,0.1,0,0.1,0,0.2c0,0.1,0,0.2,0,0.2c0,0,0,0.1,0,0.2c0,0,0,0.1,0,0.1"></path>
        <path fill="none" d="M42.4,21.1c0,0.1,0,0.3,0,0.4c0,0.1,0,0.2,0,0.3"></path>
        <path fill="none" d="M42.2,21.2c0,0.2,0,0.3,0,0.5c0,0,0,0.1,0,0.1c0,0,0,0,0,0.1c0,0,0,0.1,0,0"></path>
        <path fill="none" d="M41.9,21.2c0,0.2,0,0.5,0,0.7"></path>
        <path fill="none" d="M41.6,21.3c0,0.2,0,0.5,0,0.8"></path>
        <path fill="none" d="M41.3,21.5c0,0.2,0,0.5,0,0.7"></path>
        <path fill="none" d="M41,21.6c0,0.1,0,0.3,0,0.5c0,0,0,0.1,0,0.1c0,0,0,0,0,0.1"></path>
        <line fill="none" x1="41" y1="22.3" x2="41" y2="22.3"></line>
        <path fill="none" d="M40.7,21.8c0,0.1,0,0.1,0,0.1c0,0,0,0.1,0,0.1c0,0,0,0.1,0,0.1c0,0,0,0.1,0,0.1c0,0,0,0.1,0,0.1
          c0,0.1,0,0.1,0,0.1"></path>
        <path fill="none" d="M45.6,25.9c0.3,0.7,0.2,2,0.2,2.9c0,1,0.1,2,0.1,2.9"></path>
        <path fill="none" d="M44.4,27c0.7,0.9,0.5,3.7,0.5,5"></path>
        <path fill="none" d="M42.8,27.2c-0.2,0.8-0.5,2.3-0.1,3.1c0,0.1,0.1,0.6,0.1,0.8c0,0.1,0,1.1,0,0.8"></path>
        <path fill="none" d="M43.5,27.1c0.1,0.7,0.1,1.6,0.1,2.3c0,0.3,0.2,0.7,0.2,1c0,0.2,0,0.4,0,0.6"></path>
        <path fill="none" d="M41.7,28.3c-0.1,0.5-0.1,1.1-0.2,1.7c-0.1,0.5,0,1,0,1.5c0,0.2-0.2,1,0.2,0.9"></path>
        <path fill="none" d="M40.7,29c0,0.5-0.1,1-0.2,1.5c0,0.1,0,0.5,0,0.6"></path>
        <line fill="none" x1="40.5" y1="31.1" x2="40.4" y2="31.2"></line>
        <path fill="none" d="M40.4,31.2c0,0,0.1,0.6,0.1,0.6"></path>
        <line fill="none" x1="40.5" y1="31.8" x2="40.5" y2="31.9"></line>
        <path fill="none" d="M40.5,31.9c0,0.2-0.1,0.6,0.1,0.6"></path>
        <path fill="none" d="M45.6,35.3c0,0.8,0,2.2-0.2,2.8c-0.2,0.4-0.4,0.9-0.4,1.3c0,0.1-0.2,0.4-0.2,0.5C44.7,40,44.7,40,44.6,40
          c0,0-0.2,0.1-0.2-0.1"></path>
        <path fill="none" d="M44.5,35.7c-0.3,1.1-0.4,2.3-0.6,3.4c-0.1,0.4-0.3,0.8-0.5,1.2c-0.1,0.1-0.5,0.7-0.6,0.7"></path>
        <path fill="none" d="M42.5,35.7c-0.1,0.7-0.2,1.9-0.5,2.5c-0.1,0.3-0.2,0.7-0.3,1c-0.1,0.3-0.3,0.6-0.3,0.8c0,0.2-0.1,0.6-0.2,0.8
          c0,0.1-0.3,0.4-0.3,0.5c0,0.1-0.2,0.3-0.1,0"></path>
        <path fill="none" d="M41.5,36.9c-0.1,0.3-0.2,0.8-0.3,1.1c-0.1,0.4-0.5,0.8-0.6,1.1c-0.1,0.5-0.5,0.8-0.6,1.1
          c-0.1,0.3-0.3,0.9-0.5,1.3"></path>
        <path fill="none" d="M43.6,36.4c-0.3,0.8-0.4,1.8-0.6,2.6c-0.1,0.3-0.3,0.6-0.5,0.9c-0.1,0.1-0.5,0.5-0.6,0.5"></path>
        <path fill="#211915" d="M29.2,41.3c0,0.4,0.8,1.7,1.4,3.1c0.1,0.1,0.2,0.3,0.1,0.4C30,45.6,31,46,31,46.1c-0.1,0.2,0.2,0.2,0.2,0.3
          c0.1,0.4-0.3,0.3-0.7,0.3c-0.4,0,0.6,1.4,0.4,1.4c-1.1-0.3-2.7-0.1-2.7-1.1c0-0.5,0.6-0.7,0.5-1.1c0-0.1-0.3,0-0.5,0
          c-0.1,0-0.1,0-0.1-0.1c0,0,0,0,0,0c-0.2,0.1-0.5,0-0.5,0c-0.1,0.4,0.5,0.6,0.5,1.1c0,1.1-1.6,0.8-2.7,1.1c-0.1,0,0.8-1.4,0.4-1.4
          c-0.3,0-0.8,0.1-0.7-0.3c0-0.2,0.3-0.2,0.2-0.3c-0.1-0.2,0.9-0.6,0.4-1.3c-0.1-0.1,0-0.3,0.1-0.4c0.6-1.4,1.4-2.7,1.4-3.1
          c0.2,0,0.5-0.4,0.5-0.4c0.3-0.4,0.2-0.4,0.2,0c0,0.3,0.2,0.8,0.4,1.2c0.2-0.4,0.3-0.8,0.3-1.1c0-0.3-0.1-0.3,0.2,0
          C28.7,40.9,28.9,41.4,29.2,41.3L29.2,41.3z M28.1,44.9L28.1,44.9c0.3-0.4,0.7-0.9-0.1-1C27.4,44.1,27.9,44.6,28.1,44.9z"></path>
        <path fill="#BF0811" d="M27.1,41.5c0,0.4-0.8,1.6-1.3,3c-0.1,0.1-0.1,0.3-0.1,0.4c0.5,0.7-0.4,1.1-0.4,1.3c0.1,0.2-0.1,0.2-0.2,0.3
          c-0.1,0.4,0.3,0.3,0.6,0.3c0.3,0-0.5,1.3-0.4,1.3c1-0.3,2.5-0.1,2.6-1.1c0-0.4-0.6-0.7-0.5-1c0-0.1,0.3,0,0.5,0
          c0.2-0.1,0.3-0.3,0.3-0.4c0-0.1,0-0.2,0-0.3c-0.1-0.3-1.2-1.1,0.1-1.3c0.1,0,0.5,0.2,0.5,0.1c0-0.8-1.1-2.1-1-3
          c0-0.3,0.1-0.3-0.2,0C27.6,41.1,27.3,41.5,27.1,41.5z"></path>
        <path fill="none" d="M25.4,48c1.3-0.2,2.3-0.3,2.5-0.7c0.5-1-2.7-0.4-2.7-0.7c-0.1-1.5,3-0.3,3.1-1c0.2-1.2-2.5-0.5-2.5-0.9
          c0.1-1.5,3.2-0.9,2.9-0.8"></path>
        <path fill="#BF0811" d="M29.1,41.5c0,0.4,0.8,1.6,1.3,3c0.1,0.1,0.1,0.3,0.1,0.4c-0.5,0.7,0.4,1.1,0.4,1.3c-0.1,0.2,0.2,0.2,0.2,0.3
          c0.1,0.4-0.3,0.3-0.6,0.3c-0.3,0,0.5,1.3,0.4,1.3c-1-0.3-2.5-0.1-2.6-1.1c0-0.4,0.6-0.7,0.5-1c0-0.1-0.3,0-0.5,0
          c-0.2-0.1-0.3-0.3-0.3-0.4c0-0.1,0-0.2,0-0.3c0.1-0.3,1.2-1.1-0.1-1.3c-0.1,0-0.5,0.2-0.5,0.1c0-0.8,1.1-2.1,1-3
          c0-0.3-0.1-0.3,0.2,0C28.7,41.2,28.9,41.6,29.1,41.5z"></path>
        <path fill="none" d="M30.8,48.1c-1.3-0.2-2.3-0.3-2.5-0.7c-0.5-1,2.7-0.4,2.7-0.7c0.1-1.5-3-0.3-3.1-1c-0.2-1.2,2.5-0.5,2.5-0.8
          c-0.1-1.5-3.2-0.9-2.9-0.8"></path>
        <path fill="#211915" d="M28.1,43.4c-0.5-0.5-1-1.1-2-1.2c-2.1-0.3-4.2,0-6.2-0.8c-1.3-0.6-4.4-2.6-4.1-6.3c0.4-4.3,2.2-5.6,2.3-10.4
          c-0.2-1.6-0.7-3.6-2.1-4.7c1.2-1.4,2.7-3.3,3.9-4.6c2.5,2,5.7,1.4,8.1,0c2.4,1.4,5.7,2,8.1,0c1.2,1.4,2.7,3.3,3.9,4.6
          c-1.3,1.2-1.9,3.2-2.1,4.7c0.2,4.8,1.9,6.1,2.3,10.4c0.3,3.7-2.8,5.7-4.1,6.3c-2,0.9-4.1,0.5-6.2,0.8C29.2,42.3,28.6,43,28.1,43.4z
          "></path>
        <path fill="#FFFFFF" d="M28.6,28.9V16.8c2.3,1,4.7,1.4,7.2,0c1.2,1.3,1.9,2,3,3.3c-1.1,1.1-1.6,3.3-1.6,5c0.1,1.6,0.4,2.8,0.7,3.8
          H28.6z"></path>
        <path fill="#A1CEEF" d="M18.5,28.9c0.4-1.1,0.6-2.2,0.6-3.9c0-1.5-0.5-4.1-1.7-5.2c1.2-1.3,1.7-2,2.9-3.3c2.1,1.8,5.2,1.2,7.4,0v12.3
          H18.5z"></path>
        <path fill="#FEEE00" d="M28.1,43.2c-0.5-0.5-1-1-2-1.1c-2.1-0.3-4.2,0-6.2-0.8c-1.3-0.6-4.4-2.6-4.1-6.2c0.4-4.3,2.1-5.6,2.3-10.3
          c-0.2-1.6-0.6-3.7-1.9-4.8c1.2-1.4,2.5-3,3.7-4.4c2.5,2,5.7,1.3,8.1-0.1c2.4,1.4,5.7,2.1,8.1,0.1c1.2,1.4,2.5,3,3.8,4.3
          c-1.3,1.2-1.8,3.3-2,4.8c0.2,4.7,1.9,6,2.3,10.3c0.3,3.6-2.8,5.6-4.1,6.2c-2,0.9-4,0.5-6.2,0.8C29.1,42.2,28.6,42.7,28.1,43.2
          L28.1,43.2z M18.2,29.1L18.2,29.1h9.7V16.3c-2.2,1.2-5.4,1.8-7.7,0c-1.2,1.3-2,2.3-3.2,3.6c1.2,1.1,1.9,3.6,1.9,5.1
          C18.9,26.7,18.6,28,18.2,29.1L18.2,29.1z M28.4,29.1L28.4,29.1h9.8c-0.4-1.1-0.8-2.4-0.7-4.1c0.1-1.5,0.5-3.8,1.7-4.9
          c-1.2-1.3-2.1-2.4-3.3-3.7c-2.3,1.6-5.3,1.2-7.5-0.1V29.1L28.4,29.1z M38.4,29.5L38.4,29.5H18c-0.6,1.6-1.3,3-1.5,5.2
          c-0.3,3.5,2.6,5.4,3.9,5.9c1.9,0.8,3.9,0.5,5.9,0.8c0.9,0.1,1.5,0.7,1.9,1.1c0.5-0.4,1-1.1,1.9-1.1c2-0.3,4,0,5.9-0.8
          c1.2-0.5,4.2-2.4,3.9-5.9C39.5,32.5,38.9,31.1,38.4,29.5z"></path>
        <path fill="#BF0811" d="M28.1,42.4c-0.4-0.5-1-1-1.9-1.1c-2-0.3-3.9,0-5.8-0.8c-1.2-0.5-4.1-2.4-3.7-5.8c0.2-2.2,0.9-3.5,1.5-5
          c6.7,0,13.3,0,20.1,0c0.5,1.5,1.1,2.8,1.3,5c0.3,3.4-2.5,5.3-3.7,5.8C33.9,41.4,32,41,30,41.3C29.1,41.4,28.6,41.9,28.1,42.4z"></path>
        <path fill="#211915" d="M29.7,31.2c0.5,0.2,1,0.4,1.1,0.8c0.5,0.1,0.8,0.4,1,0.9c0.4,0.2,0.6,0.3,0.6,0.6c0.2,0,0.4,0.2,0.6,0.5
          c0.3,0,0.6,0.1,0.8,0.5c0.2-0.1,0.4-0.1,0.6,0.1c0.2-0.1,0.5-0.2,0.7,0c0.1,0,0.2,0,0.3,0c0.2-0.2,0.3-0.3,0.6-0.3
          c0-0.1,0-0.3,0.2-0.4c-0.1-0.2-0.2-0.4,0-0.6c-0.1-0.1-0.1-0.3,0-0.5c-0.1-0.1-0.2-0.2-0.1-0.4c-0.2-0.1-0.3-0.2-0.3-0.3
          c-0.3-0.1-0.4-0.2-0.5-0.3c-0.1,0.1-0.2,0.1-0.3,0c-0.1,0.1-0.2,0.1-0.4,0.1c-0.1,0.2-0.2,0.3-0.4,0.4c0,0.1,0,0.2,0,0.3
          c0.3-0.1,0.5,0.3,0.4,0.6c-0.2,0.3-0.6,0.3-0.7,0c-0.2,0-0.3-0.2-0.4-0.4c-0.1-0.2-0.2-0.3,0-0.5c-0.2-0.3,0-0.5,0.2-0.7
          c0.1-0.3,0.3-0.4,0.5-0.4c0.2-0.2,0.2-0.4,0.6-0.3c0.3-0.2,0.6-0.2,0.8,0c0.3,0,0.5,0,0.7,0.3c0.2,0.1,0.4,0.2,0.5,0.5
          c0.2,0.1,0.5,0.2,0.4,0.6c0.3,0.2,0.4,0.5,0.4,0.8c0.1,0.3,0.1,0.5,0,0.8c0.2,0.3,0.1,0.5,0,0.8c0.1,0.4-0.1,0.7-0.4,0.9
          c-0.1,0.6-0.4,0.7-0.8,0.9c-0.3,0.6-0.7,0.7-1.1,0.6c-0.3,0.3-0.7,0.4-1,0.3c-0.4,0.2-0.9,0.4-1.1,0.2c-0.6,0.2-1.1,0.3-1.4-0.1
          c-0.6,0.1-1.1,0-1.3-0.4c-0.6,0.1-0.8-0.1-1-0.4c-0.6,0.3-1.1,0.3-1.5-0.1c-0.1,0.1-0.2,0.1-0.3,0.1c0.3,0.5,0.2,0.8,0.1,1.2
          c0.4-0.1,0.7,0,0.9,0.3c0.5-0.3,0.9-0.4,1.4,0.3c0.9-0.4,1.3-0.1,1.5,0.7c0.1-0.1,0.4-0.2,0.6-0.1c0.4-0.7,1-0.5,1.3,0.1
          c0.3,0.6-0.3,1.2-1,1.1c-0.3,0.2-0.6,0.3-0.9,0.2c-0.5,0.2-0.9,0-1.2-0.1c-0.4,0.4-0.7,0.4-1.1,0.2c-0.6,1-1.1,0.7-1.7,0.3
          c-0.4,0.2-0.8,0-1.1-0.2c-0.2,0.3-0.4,0.4-0.7,0.4c-0.3,0-0.5-0.1-0.6-0.2c-0.5,0.4-1,0.2-1.4-0.1c-0.6,0.1-0.8-0.2-1-0.5
          c-0.1,0.1-0.3,0.1-0.5,0c-0.6,0.6-1.5,0.3-1.5-0.6c-0.3,0-0.7,0-0.9-0.7c-0.1-0.2,0-0.3,0.1-0.5c-0.4-0.3-0.5-0.5-0.3-1.1
          c-0.4-0.2-0.6-0.6-0.3-1.3c-0.3-0.7-0.4-1.2,0.3-1.8c0.4-0.4,0.8-0.7,1.2-0.8c0-0.5,0.2-0.9,1-1c0.1-0.7,0.5-1.1,1.3-1.1
          c0.3-0.4,0.7-0.7,1.5-0.6c0.2-0.4,0.7-0.5,1.7-0.2c0.5-0.4,1.1-0.3,1.7,0.2C28.3,30.4,29.3,30.7,29.7,31.2z"></path>
        <path fill="#F1CF00" d="M34.3,32.8c0,0.1-0.1,0.3-0.2,0.3c0,0.1,0.3,0.4,0.4,0.1C34.6,32.9,34.5,32.7,34.3,32.8L34.3,32.8z
          M34.2,31.4L34.2,31.4c-0.1,0-0.3,0.2-0.2,0.5c0.1,0.3,0.3,0.3,0.5,0.1C34.2,31.8,34.1,31.5,34.2,31.4L34.2,31.4z M34.1,32.2
          c-0.1,0.3-0.2,0.3-0.4,0.2c-0.2-0.1-0.1-0.3,0-0.5C33.8,32,33.9,32.2,34.1,32.2L34.1,32.2L34.1,32.2z M34.1,32.6
          c0.1,0.1,0.1,0.3-0.1,0.4c-0.2,0.1-0.4-0.2-0.4-0.4C33.7,32.6,33.9,32.6,34.1,32.6L34.1,32.6L34.1,32.6z M37.6,33.6L37.6,33.6
          c0-0.2-0.3-0.7-0.8-0.5c-0.4,0.2-0.5,0.4-0.4,0.6C36.5,33.4,37.3,33.3,37.6,33.6L37.6,33.6z M37.5,32.9c-0.3-0.1-1,0-1,0.2
          c-0.1,0-0.1-0.4,0.4-0.6C37.3,32.4,37.4,32.7,37.5,32.9L37.5,32.9L37.5,32.9z M37.2,32.3L37.2,32.3c0-0.2-0.2-0.6-0.6-0.3
          c-0.4,0.2-0.3,0.6-0.1,0.6C36.4,32.3,36.8,32.2,37.2,32.3L37.2,32.3z M36.7,31.6c-0.3,0-0.6,0.4-0.6,0.6c-0.1,0-0.3-0.2-0.1-0.5
          C36.4,31.2,36.6,31.5,36.7,31.6L36.7,31.6L36.7,31.6z M36.2,31.2c-0.3,0.1-0.5,0.5-0.5,0.7c-0.1,0-0.5-0.2-0.3-0.6
          C35.8,30.8,36.1,31.1,36.2,31.2L36.2,31.2L36.2,31.2z M35.5,30.9L35.5,30.9c-0.1,0-0.5-0.1-0.6,0.3c-0.1,0.4,0.3,0.5,0.4,0.4
          C35.2,31.5,35.3,31.1,35.5,30.9L35.5,30.9z M34.8,31c-0.1,0.3,0,0.6,0.2,0.7c0,0.1-0.4,0.2-0.5-0.2C34.3,31.1,34.6,31.1,34.8,31
          L34.8,31L34.8,31z M37.6,34.3c-0.1-0.4-0.8-0.6-1.1-0.5c0-0.2,0.1-0.3,0.6-0.3C37.6,33.7,37.7,34.2,37.6,34.3L37.6,34.3L37.6,34.3z
          M37.2,35.5L37.2,35.5c0.2-0.1,0.5-0.8,0-1.2c-0.5-0.4-0.9-0.2-1,0C36.7,34.2,37.4,35,37.2,35.5L37.2,35.5z M36.6,36.3L36.6,36.3
          c0.7-0.3,0.6-1.2,0.1-1.6c-0.5-0.4-0.7-0.3-1,0C36.3,35,36.6,35.5,36.6,36.3L36.6,36.3z M35.6,36.9c0.2-0.8,0-1.5-0.3-2
          c0.2-0.1,0.4-0.1,0.7,0.4C36.5,35.9,36.5,37,35.6,36.9L35.6,36.9L35.6,36.9z M34.7,37.3c0.5-0.8,0.2-1.8,0-2.3
          c0.2-0.1,0.4-0.1,0.7,0.4C35.8,36.1,35.5,37.4,34.7,37.3L34.7,37.3L34.7,37.3z M33.5,37.4L33.5,37.4c1.1,0.4,1.6-1.2,1-2.1
          c-0.3-0.5-0.5-0.5-0.7-0.4C34.2,35.7,34.1,37,33.5,37.4L33.5,37.4z M32.1,37.4c0.7-0.1,1.3-1.9,0.9-3c0.2-0.1,0.8,0.5,0.8,1.3
          C33.8,36.7,33.2,38.2,32.1,37.4L32.1,37.4L32.1,37.4z M31,37.1L31,37.1c1.1,0.9,1.9-0.4,2-1.7c0-0.8-0.1-1.5-0.6-1.6
          C32.5,35.1,31.8,36.9,31,37.1L31,37.1z M29.7,36.6L29.7,36.6c1.1,0.9,2.2-0.3,2.4-1.8c0.1-0.8,0-1.1-0.4-1.5
          C31.8,34.4,30.3,36.4,29.7,36.6L29.7,36.6z M28.4,36.6L28.4,36.6c1.5,0.9,4.4-3.7,2.3-4.3C31,33.6,29,36.5,28.4,36.6L28.4,36.6z
          M27.7,36.4c0-0.7,0.7-1.4,1.3-2.3c0.6-1,0.9-2,0.8-2.6C32,32.1,28.5,37.5,27.7,36.4L27.7,36.4L27.7,36.4z M27.5,36.4
          c0.1-0.1-0.3,0-0.2-0.1c-0.2-1.5,1.9-3.7,1-5.3c1.3-0.1,1.4,0.6,1.2,1.4C29.1,33.7,27.6,35.5,27.5,36.4L27.5,36.4L27.5,36.4z
          M27.1,36.3L27.1,36.3c-0.3-1,0.8-2.7,1.1-4c0.2-0.8-0.4-2-1.6-1.5c1.3,1.3-0.3,4,0.3,5.4C27,36.3,27.2,36.2,27.1,36.3L27.1,36.3z
          M26.7,36.1c0.1-0.1-0.1,0.1-0.3-0.1c-1-2.1,0.3-4.2-1.7-5.2c1.1-0.9,2.1,0.5,2.1,1.3C26.8,33.3,26.2,35.1,26.7,36.1L26.7,36.1
          L26.7,36.1z M26.1,35.9L26.1,35.9c-0.5-0.9-0.3-2.7-0.6-3.8c-0.2-0.8-1.5-1.8-2.3-0.6c2.2,0.5,1.2,2.7,2.6,4.5
          C26,36,26.1,35.8,26.1,35.9L26.1,35.9z M25.6,35.9L25.6,35.9c-0.8-0.7-0.8-2.4-1.4-3.5c-0.5-0.9-1.7-1.4-2.2,0
          c2.3,0.5,1.6,2.3,2.8,3.3C25.1,35.9,25.6,35.9,25.6,35.9L25.6,35.9z M24.4,35.6c0-0.1-0.3-0.3-0.6-0.3c-1-0.8-0.9-1.7-2.9-1.8
          c0.2-1.4,1.8-0.8,2.4,0.1C24,34.6,23.7,34.9,24.4,35.6L24.4,35.6L24.4,35.6z M19.5,35.9L19.5,35.9c0.1,0,0.2,0,0.2,0
          c-0.2-0.5,0.1-0.9,0.7-0.9c0.6,0,1.5,0.4,2.1,1c0.5,0.4,1.2,0.9,2.1,1.1c0.7,0.2,1.6,0.2,2.4,0.5c0.4,0.2,0.3,0.4,0.2,0.9
          c0.3-0.1,0.5-0.3,0.5-0.6c0-0.7-0.5-1.2-1.6-1.6c-0.9,0-1.9-0.2-2.7-0.9c-0.4-0.6-0.9-1.2-1.8-1.5c-0.5-0.2-1-0.2-1.6,0.2
          c-0.7,0.4-0.8,0.8-0.8,1.2C19.4,35.4,19.4,35.6,19.5,35.9z"></path>
        <path fill="#F1CF00" d="M23.8,37.3c0.3,0.3,0.4,0.7,0.3,0.9c-0.2,0.3-0.6,0.3-1,0c-0.3-0.3-0.4-0.7-0.2-0.9
          C23.1,37,23.5,37,23.8,37.3L23.8,37.3z M25.3,38L25.3,38c0.3,0.2,0.3,0.6,0.2,0.8c-0.2,0.2-0.5,0.2-0.7,0c-0.3-0.2-0.3-0.6-0.2-0.8
          C24.7,37.8,25.1,37.8,25.3,38L25.3,38z M26.7,38.4L26.7,38.4c0.3,0.2,0.4,0.6,0.2,0.8c-0.2,0.2-0.5,0.2-0.8,0
          c-0.3-0.2-0.4-0.6-0.2-0.8C26.1,38.2,26.4,38.2,26.7,38.4L26.7,38.4z M21.8,36.5L21.8,36.5c0.4,0,0.6,0.4,0.6,0.7
          c0,0.4-0.3,0.6-0.6,0.6c-0.4,0-0.7-0.4-0.7-0.8C21.1,36.7,21.5,36.5,21.8,36.5L21.8,36.5z M22.4,38.8L22.4,38.8
          c0.3,0,0.6,0.3,0.6,0.6c0,0.3-0.3,0.5-0.6,0.5c-0.2,0-0.4-0.2-0.5-0.4c0.2-0.1,0.3-0.3,0.3-0.5c0-0.1,0-0.1,0-0.2
          C22.2,38.8,22.3,38.8,22.4,38.8L22.4,38.8z M20.8,38.6L20.8,38.6c-0.2,0.1-0.3,0.2-0.3,0.4c0,0.1,0,0.2,0.1,0.3c0,0,0,0,0,0
          c-0.3,0-0.6-0.3-0.6-0.6c0-0.1,0.1-0.3,0.1-0.3c0.1,0.1,0.2,0.1,0.3,0.1c0,0,0.1,0,0.1,0C20.7,38.5,20.7,38.6,20.8,38.6L20.8,38.6z
          M20.6,37.3L20.6,37.3c-0.2,0.1-0.3,0.3-0.3,0.5c0,0.2,0.1,0.4,0.2,0.5c-0.1,0-0.1,0-0.2,0c-0.4,0-0.7-0.4-0.7-0.8
          c0-0.1,0-0.2,0.1-0.2c0.1,0,0.1,0,0.2,0c0.2,0,0.3-0.1,0.4-0.2C20.5,37.3,20.6,37.3,20.6,37.3L20.6,37.3z M22.1,39.2
          c0,0.1-0.1,0.3-0.2,0.4C22,39.5,22,39.4,22.1,39.2C22.1,39.3,22.1,39.2,22.1,39.2L22.1,39.2L22.1,39.2z M22.2,40.1
          c-0.2-0.1-0.3-0.2-0.4-0.4c-0.1,0.1-0.2,0.1-0.3,0.1c-0.2,0-0.3-0.1-0.5-0.2c0,0,0,0.1,0,0.1c0,0.3,0.3,0.7,0.7,0.7
          C21.8,40.3,22,40.2,22.2,40.1L22.2,40.1L22.2,40.1z M22.5,37.4C22.5,37.4,22.5,37.4,22.5,37.4c0,0.3-0.3,0.5-0.6,0.5c0,0,0,0,0,0
          c0,0.3,0.3,0.6,0.6,0.6c0.2,0,0.4-0.1,0.5-0.3c-0.3-0.2-0.3-0.5-0.2-0.8C22.7,37.5,22.6,37.4,22.5,37.4L22.5,37.4L22.5,37.4z
          M21.7,38.5c-0.1,0.3-0.5,0.4-0.9,0.2c0,0,0,0,0,0c-0.1,0.1-0.1,0.2,0,0.4c0.1,0.3,0.5,0.6,0.8,0.5c0.3-0.1,0.5-0.4,0.4-0.7
          C21.9,38.7,21.8,38.5,21.7,38.5L21.7,38.5L21.7,38.5z M20,36L20,36c0.1,0,0.2,0,0.3,0.1c-0.1,0.1-0.2,0.2-0.2,0.4
          c0,0.2,0.1,0.4,0.3,0.5c-0.1,0.1-0.2,0.1-0.4,0.1c-0.3,0-0.6-0.3-0.6-0.7C19.4,36.2,19.7,36,20,36L20,36z M20.8,36
          c-0.3,0-0.6,0.2-0.6,0.5c0,0.3,0.3,0.6,0.6,0.6c0.1,0,0.2,0,0.3-0.1c0,0,0-0.1,0-0.1c0-0.2,0.1-0.3,0.2-0.4
          C21.3,36.2,21.1,36,20.8,36L20.8,36L20.8,36z M21.7,37.9C21.7,37.9,21.7,37.9,21.7,37.9c-0.3,0-0.5-0.2-0.6-0.5
          c-0.2,0-0.3,0-0.4,0.2c-0.2,0.2-0.1,0.5,0.2,0.7s0.6,0.2,0.8,0C21.7,38.2,21.7,38,21.7,37.9L21.7,37.9L21.7,37.9z M29.9,38.8
          L29.9,38.8c0.1,0.3-0.1,0.6-0.4,0.6c-0.3,0-0.6-0.2-0.7-0.4c-0.1-0.3,0.1-0.6,0.4-0.6C29.5,38.3,29.8,38.5,29.9,38.8L29.9,38.8z
          M31.3,39L31.3,39c0.1,0.3-0.1,0.6-0.4,0.6c-0.3,0-0.6-0.1-0.7-0.4c-0.1-0.3,0.1-0.6,0.4-0.6C30.9,38.5,31.2,38.7,31.3,39L31.3,39z
          M23.9,40.1c0,0-0.1,0.1-0.2,0.1c-0.2,0-0.5-0.1-0.5-0.3c0-0.1,0-0.2,0-0.2c-0.1,0-0.2,0.1-0.2,0.1c-0.1,0.2-0.1,0.5,0.2,0.6
          c0.2,0.2,0.5,0.2,0.7,0C23.9,40.3,23.9,40.2,23.9,40.1L23.9,40.1L23.9,40.1z M24.3,39.7L24.3,39.7C24.3,39.9,24.2,40,24,40
          c-0.3,0.1-0.6-0.1-0.7-0.3c-0.1-0.1,0-0.3,0-0.4c0.1,0,0.3,0.1,0.4,0c0.1,0,0.2-0.1,0.3-0.2c0,0.1,0,0.2,0,0.4
          C24,39.6,24.2,39.7,24.3,39.7L24.3,39.7z M24.2,38.4C24.2,38.4,24.2,38.4,24.2,38.4c-0.1-0.1-0.1,0-0.1,0c-0.2,0.2-0.6,0.2-1,0
          c0,0-0.1-0.1-0.1-0.1c0,0.1,0,0.2,0,0.2c0.1,0.3,0.4,0.5,0.7,0.4C24.1,39,24.3,38.7,24.2,38.4L24.2,38.4L24.2,38.4z M28.6,39.2
          L28.6,39.2c-0.1,0.1-0.2,0.2-0.4,0.2c-0.3,0.1-0.7-0.2-0.7-0.5c-0.1-0.3,0.1-0.6,0.4-0.7c0.3,0,0.5,0.1,0.6,0.3
          c-0.1,0.1-0.1,0.3-0.1,0.5C28.5,39.1,28.5,39.1,28.6,39.2L28.6,39.2z M29.5,39.7c-0.3,0-0.7-0.1-0.8-0.4c-0.2,0.1-0.4,0.3-0.3,0.6
          c0.1,0.3,0.4,0.5,0.7,0.5C29.4,40.3,29.6,40,29.5,39.7L29.5,39.7L29.5,39.7z M29.1,40.4L29.1,40.4c0.1,0.3-0.2,0.5-0.5,0.6
          c-0.3,0-0.7-0.2-0.8-0.4c-0.1-0.3,0.1-0.5,0.4-0.6C28.3,40.3,28.7,40.5,29.1,40.4L29.1,40.4z M30.4,39.8c0,0,0-0.1,0-0.1
          c-0.1-0.1-0.2-0.2-0.3-0.3c-0.1,0-0.2,0-0.3,0c-0.1,0-0.1,0-0.2,0.1c0,0,0,0.1,0.1,0.1c0.1,0.2,0,0.4-0.2,0.6
          c0.1,0.1,0.3,0.2,0.5,0.2C30.3,40.4,30.5,40.1,30.4,39.8L30.4,39.8L30.4,39.8z M31.7,39.7c0-0.1-0.1-0.2-0.2-0.3
          c-0.1,0.2-0.3,0.4-0.6,0.5c-0.1,0-0.2,0-0.4,0c0,0,0,0,0,0.1c0.1,0.3,0.4,0.5,0.7,0.5C31.6,40.3,31.8,40,31.7,39.7L31.7,39.7
          L31.7,39.7z M32.5,39.7L32.5,39.7c0.1,0.3-0.1,0.6-0.4,0.6c-0.1,0-0.3,0-0.4-0.1c0.2-0.2,0.2-0.4,0.2-0.6c0-0.1-0.1-0.2-0.2-0.3
          c0,0,0.1,0,0.1,0C32.2,39.2,32.5,39.4,32.5,39.7L32.5,39.7z M33.4,39.4c-0.1-0.3-0.4-0.5-0.7-0.4c-0.2,0-0.3,0.1-0.4,0.2
          c0.2,0.1,0.3,0.3,0.4,0.5c0,0.1,0,0.2,0,0.3c0.1,0,0.2,0,0.2,0C33.3,40,33.5,39.7,33.4,39.4L33.4,39.4L33.4,39.4z M26.5,39.9
          c0.1-0.1,0.1-0.2,0.1-0.4c0,0,0,0-0.1,0c-0.3,0-0.6-0.1-0.8-0.3c-0.1,0.1-0.2,0.1-0.2,0.2c-0.2,0.3-0.2,0.6,0.1,0.7
          C25.9,40.3,26.3,40.2,26.5,39.9L26.5,39.9L26.5,39.9z M25.4,39.2c-0.1,0-0.1,0.1-0.2,0.1c-0.4,0.1-0.7-0.2-0.8-0.6c0,0,0,0,0,0
          c0,0.1-0.1,0.2-0.1,0.3c0,0.2,0.1,0.5,0.3,0.7c0.3,0.3,0.6,0.3,0.8,0C25.5,39.6,25.5,39.4,25.4,39.2L25.4,39.2L25.4,39.2z
          M26.5,40.5L26.5,40.5c-0.2,0.3-0.6,0.4-0.9,0.3c-0.2-0.1-0.3-0.4-0.2-0.6c0.2,0.2,0.4,0.2,0.7,0.2c0.2,0,0.4-0.1,0.5-0.3
          C26.6,40.2,26.6,40.4,26.5,40.5L26.5,40.5z M25.2,40.1c0,0,0-0.1,0-0.1c0,0-0.1,0-0.1,0c-0.2,0-0.4,0-0.6-0.1
          c-0.1,0.1-0.3,0.2-0.4,0.3c0,0.1,0,0.2,0,0.2c0,0.3,0.3,0.5,0.7,0.4C25,40.7,25.2,40.4,25.2,40.1L25.2,40.1L25.2,40.1z M27.7,40.7
          c0-0.1-0.1-0.1-0.1-0.2c0-0.2,0-0.3,0.1-0.5c-0.3,0.1-0.6,0.1-0.9-0.1c-0.2,0.2-0.3,0.5-0.1,0.7C27,40.9,27.4,40.9,27.7,40.7
          C27.7,40.7,27.7,40.7,27.7,40.7L27.7,40.7L27.7,40.7z M28.2,39.5C28.2,39.5,28.2,39.5,28.2,39.5c-0.4,0.1-0.8-0.2-0.9-0.5
          c0,0,0,0,0,0c0,0.2-0.2,0.4-0.4,0.5c0,0,0,0,0,0c0,0.3,0.3,0.5,0.7,0.5C27.9,39.9,28.2,39.7,28.2,39.5L28.2,39.5z"></path>
        <path fill="#B5733C" d="M33,23c-0.2-1.2-0.6-2-1-2.7c-0.3-0.3-0.6-0.6-0.9-0.9c0.4,0.3,0.8,0.6,1.1,0.8c0.4,0.7,0.7,1.4,0.9,2.3
          c0.1-0.1,0.2,0,0.3-0.2c0.7-0.3,1.4-1.3,2-2c-0.1,0.2-0.5,0.9-0.6,1.1c-1.2,1.3-1.7,1.3-1.7,1.8c0,0.2-0.1,0.3-0.1,0.5
          c0.2-0.2,0.9-0.9,1.2-1.2c-0.2,0.3-0.9,1.2-1,1.5c-0.2,0.3-0.1,0.6-0.1,0.9c0.9-0.3,1.9-1.1,2.9-1.8c-1,1.3-1.9,1.3-2.9,2.5
          c-0.1,0.5-0.1,0.9-0.2,1.4c0,0.4,0.1,0.8,0.1,1.2c0.2,0.1,0.4,0.2,0.5,0.4c0.6,0.1,2.5,0.2,3.1,0.5l-7.9,0c0.4-0.3,2.2-0.4,2.8-0.4
          c0.1-0.3,0.4-0.5,0.8-0.6c0-0.7,0.1-1.3,0.1-2c0-0.3-0.1-0.6-0.4-0.9c-0.8-0.6-1.4-1.4-1.9-2.2c0.8,0.9,1.7,1.7,2.5,2.2
          c0-0.1,0.1-0.2,0.1-0.4c0-0.3,0-0.6,0-0.9c-0.6-0.5-1.2-0.9-1.7-1.7c0,0-0.6-0.8-0.6-0.8c0.6,0.6,1.8,1.8,2.3,2.2
          c0-0.1,0-0.1,0-0.2c-0.1-0.1-0.1-0.2-0.2-0.3C32.8,23,32.9,23,33,23z"></path>
        <path fill="#56894A" d="M36.1,22.9c0.3-1,0.6-1,1.2-1.3C36.9,22.5,36.6,22.9,36.1,22.9z"></path>
        <path fill="#56894A" d="M33.5,25.3c1.1-0.6,1.3,0.2,1.8,0.2C34.7,26,33.9,25.3,33.5,25.3z"></path>
        <path fill="#56894A" d="M34.3,19.8c-0.6-1.4,0.5-1.4,0.5-2C35.3,18.7,34.3,19.4,34.3,19.8z"></path>
        <path fill="#56894A" d="M32.4,24.7c-0.5-0.7-0.3-0.8-0.1-1.3C32.7,24.1,32.7,24.5,32.4,24.7z"></path>
        <path fill="#56894A" d="M31.1,23.6c-1-0.8-0.1-1.2-0.3-1.7C31.6,22.4,31,23.3,31.1,23.6z"></path>
        <path fill="#56894A" d="M31.9,24.3c-0.9-0.8-0.3-1.3-0.5-1.8C32.1,22.9,31.8,23.9,31.9,24.3z"></path>
        <path fill="#56894A" d="M35.6,20.2c-0.1-1.4,0.6-1.6,1.2-2.1C36.7,19.4,36.1,20.1,35.6,20.2z"></path>
        <path fill="#56894A" d="M34.1,24.8c1-0.6,1.3,0.2,1.8,0.2C35.3,25.5,34.5,24.8,34.1,24.8z"></path>
        <path fill="#56894A" d="M34.9,24.3c1.1-0.5,1.3,0.4,1.8,0.4C36,25.1,35.3,24.3,34.9,24.3z"></path>
        <path fill="#56894A" d="M35.5,23.9c0.7-0.9,1.2-0.1,1.6-0.3C36.7,24.3,35.8,23.8,35.5,23.9z"></path>
        <path fill="#56894A" d="M36,23.4c0.4-0.9,0.9-0.2,1.1-0.4C37,23.7,36.2,23.3,36,23.4z"></path>
        <path fill="#56894A" d="M32.8,25.3c-1.1-0.6-1.3,0.2-1.8,0.2C31.6,26,32.4,25.3,32.8,25.3z"></path>
        <path fill="#56894A" d="M32.2,24.8c-1-0.6-1.3,0.2-1.8,0.2C31,25.5,31.8,24.8,32.2,24.8z"></path>
        <path fill="#56894A" d="M31.4,24.3c-1.1-0.5-1.3,0.4-1.8,0.4C30.3,25.1,31,24.3,31.4,24.3z"></path>
        <path fill="#56894A" d="M30.8,23.9c-0.7-0.9-1.2-0.1-1.6-0.3C29.6,24.3,30.5,23.8,30.8,23.9z"></path>
        <path fill="#56894A" d="M30.3,23.4c-0.4-0.9-0.9-0.2-1.1-0.4C29.3,23.7,30,23.3,30.3,23.4z"></path>
        <path fill="#56894A" d="M30.3,22.8c-0.3-1-0.6-1-1.2-1.3C29.5,22.4,29.9,22.8,30.3,22.8z"></path>
        <path fill="#56894A" d="M33.8,24.5c0.4-0.5,0.4-0.9,0.3-1.4C33.6,23.7,33.7,24.2,33.8,24.5z"></path>
        <path fill="#56894A" d="M35.4,23.3c1.1-0.5,0.4-1.2,0.6-2C35.5,22.1,35.5,23.1,35.4,23.3z"></path>
        <path fill="#56894A" d="M34.4,24c1.1-0.5,0.5-1.4,0.9-1.8C34.6,22.6,34.7,23.7,34.4,24z"></path>
        <path fill="#56894A" d="M31,21.9c-0.6-0.9-0.9-0.7-1.5-0.9C30.2,21.8,30.6,22,31,21.9z"></path>
        <path fill="#56894A" d="M30.8,21.5c0.1-1.2-0.3-1.3-0.8-1.9C30.1,20.7,30.4,21.3,30.8,21.5z"></path>
        <path fill="#56894A" d="M31.4,19.5c0.6-0.9,0.3-1,0-1.6C30.9,18.8,30.9,19.3,31.4,19.5z"></path>
        <path fill="#56894A" d="M31.5,22.4c-1-0.8-0.1-1.2-0.3-1.7C32,21.1,31.4,22,31.5,22.4z"></path>
        <path fill="#56894A" d="M32.4,23c-0.5-0.7-0.3-0.8-0.1-1.3C32.7,22.4,32.7,22.7,32.4,23z"></path>
        <path fill="#56894A" d="M31.9,22.7c0.3-0.6,0.2-0.9,0-1.4C31.5,21.9,31.7,22.4,31.9,22.7z"></path>
        <path fill="#56894A" d="M32.2,20.1c-1-0.8-0.1-1.2-0.3-1.7C32.6,18.8,32,19.7,32.2,20.1z"></path>
        <path fill="#56894A" d="M34.2,19.6c-1.2-0.4-0.5-1.1-0.8-1.5C34.2,18.2,34,19.3,34.2,19.6z"></path>
        <path fill="#56894A" d="M33.5,22.4c0.3-0.8,0.2-1.2,0-1.8C33,21.4,33.2,22,33.5,22.4z"></path>
        <path fill="#56894A" d="M35.1,20.6c0.9-0.8,0.1-1.3,0.1-2C34.8,19.4,35.1,20.3,35.1,20.6z"></path>
        <path fill="#56894A" d="M34.1,21.9c0.9-1-0.2-1.5-0.1-2C33.5,20.6,34.2,21.5,34.1,21.9z"></path>
        <path fill="#56894A" d="M37.4,20.1c-0.9,0.8-1.2,0.6-2.1,0.5C36.3,19.9,36.9,19.8,37.4,20.1z"></path>
        <path fill="#56894A" d="M34.7,21.5c1-0.7,1.3-0.4,2.1-0.3C35.9,21.8,35.3,21.8,34.7,21.5z"></path>
        <path fill="#56894A" d="M34.8,21.2c0.1-0.8,0-1.2-0.4-1.7C34.2,20.4,34.5,20.9,34.8,21.2z"></path>
        <path fill="#56894A" d="M32.8,21.4c-0.3-0.8-0.1-0.9,0.2-1.3C33.3,20.8,33.2,21.2,32.8,21.4z"></path>
        <path fill="#56894A" d="M32.4,20.5c0.4-0.5,0.5-0.8,0.5-1.4C32.3,19.7,32.3,20.2,32.4,20.5z"></path>
        <path fill="#56894A" d="M31.9,20.2c-0.5-0.4-0.9-0.4-1.4-0.3C31.1,20.4,31.6,20.3,31.9,20.2z"></path>
        <path fill="#56894A" d="M32.5,21.4c-0.5-0.4-0.9-0.4-1.4-0.3C31.7,21.6,32.2,21.5,32.5,21.4z"></path>
        <path fill="#56894A" d="M32.4,20.9c-0.5-0.4-0.9-0.4-1.4-0.3C31.6,21.1,32.1,21,32.4,20.9z"></path>
        <path fill="#56894A" d="M33.5,22.6c1,0.6,1.3-0.2,1.8-0.1C34.7,22,33.9,22.6,33.5,22.6z"></path>
        <path fill="#56894A" d="M34.3,22c0.9-0.5,1.1-0.3,1.8-0.1C35.1,22.3,34.6,22.3,34.3,22z"></path>
        <path fill="#56894A" d="M31.2,19.6c-0.9,0.1-1-0.4-1.4-0.7C30.7,18.9,31.1,19.3,31.2,19.6z"></path>
        <path fill="#80736D" d="M27.6,28.3c-0.1,0-0.3-0.1-0.3-0.1C27,28.3,26.2,28,26,28c-0.5,0.2-1.3-0.4-1.6-0.2c-0.2,0.1-1.3,0.1-1.6,0.1
          c-0.8,0-1.3-0.2-2,0.1c-0.3,0.2-0.8-0.4-1-0.2c-0.3,0.3-0.7,0.4-1.2,0.4c-0.1,0.2-0.1,0.4-0.2,0.6h9.2V28.3z"></path>
        <path fill="#211915" d="M25.9,24.4c-0.5,0.2-0.8,1.5-1,1.9c-0.1,0.2-0.3,0.7-0.1,1c0.1,0.1,0.3,0.2,0.3,0.3c0.3,0.1,0.5,0.2,0.5,0.5
          c-0.1,0.2-0.6,0.2-0.8,0c0-0.1,0-0.1-0.1-0.2c0-0.1,0-0.1-0.1-0.2c-0.7-0.4-0.2-0.8-0.3-1.8c0,0.2-0.1,0.4-0.1,0.5
          c0,0.4-0.1,0.8-0.1,1.2c0.1,0.2,0.2,0.3,0.4,0.4c0.1,0.1,0.1,0.1,0.3,0.3c0,0.1,0.1,0.2,0,0.2c-0.1,0.1-0.1,0.2-0.6,0
          c0-0.1,0-0.1,0-0.2c-0.1,0-0.1,0-0.1-0.1c0-0.1-0.1-0.2-0.2-0.3c0-0.2-0.2-0.2-0.2-0.4c-0.1-0.2,0.1-0.6,0.1-0.9
          c0.1-0.5,0.2-0.9,0.2-1.4c-0.2-0.2-0.2-0.6-0.2-1c-0.4,0.2-1.1-0.2-1.3-0.3c-0.2-0.1-0.1,0.9-0.8,1.4c-0.2,0.2-0.2,0.3-0.3,0.5
          c-0.3,0.3,0.2,1.2,0.4,1.4c0.1,0.1,0.3,0.4,0.5,0.6c0.2,0.1,0.5,0.3,0.5,0.5c-0.2,0.1-0.7,0.1-0.9,0c0-0.1-0.2-0.3,0-0.4
          c-0.1,0-0.4-0.1-0.4-0.2c-0.1-0.2-0.6-1.4-0.8-1.6c-0.1,0-0.1-0.3-0.1-0.4c0-0.2,0,0,0.2-0.6c-0.1,0.3-0.6,0.5-0.5,0.9
          c0,0.3,0.3,0.9,0.4,1.2c0.2,0.1,0.1,0.3,0.5,0.4c0.2,0.1,0.5,0.4,0.5,0.6c-0.2,0.1-0.7,0.2-0.9,0c-0.1-0.1-0.1-0.3-0.1-0.4
          c-0.1,0,0-0.1-0.1-0.1c-0.1-0.1-0.3,0-0.4-0.1c-0.1-0.6-0.3-1.7-0.4-2.3c0-0.1,0.1-0.5,0.2-0.5c0.3-0.2,0.5-0.5,0.6-0.8
          c0.3-0.2,0.2-0.9-0.1-1.2c-0.1,0.2,0,0.2-0.1,0.3c-0.1,0.1-0.4-0.4-0.3-0.6c0-0.3,0-0.5,0.1-0.8c0.1-0.6,0.4-0.7,0.8-0.4
          c0.4-0.4,0.9-0.6,1.5-0.5c0.9-0.3,1.6,0,2,0.2c0.6,0.1,0.8,0.4,1.2,0.6c0.2,0.1,0.4,0,0.5-0.1c0-0.9-0.1-1.8-0.5-2.8
          c-0.4,0.2-0.7,0-1.1-0.3c-0.1-0.1-0.1-0.1,0-0.2c0.1,0,0.3-0.1,0.4-0.1c-0.2-0.2-0.2-0.2,0-0.3c0.3,0.1,0.6-0.2,0.9,0
          c0.2-0.3,0.5-0.3,0.8-0.3c0.2,0,0.5,0.1,0.7,0.4c0.1,0.2,0.5,0.2,0.6,0.3c0.1,0.1,0,0.3,0,0.5C27.2,19,27,19,26.9,19.1
          c-0.1,0-0.2,0-0.3,0c0,0.1-0.1,0.2-0.3,0.2c0.2,0.7,0.4,1.7,0.4,2.8c0,0.5,0,1.2-0.6,1.7C25.9,23.9,26,24.2,25.9,24.4z"></path>
        <path fill="#B5733C" d="M25.2,18.5c-0.1,0.1-0.3,0.3-0.5,0.3c-0.2,0-0.2-0.2-0.5-0.2c-0.1,0-0.1-0.1,0-0.1c0.3-0.1,0.7-0.3,0.9,0
          c-0.2,0-0.3,0-0.5,0.1C24.9,18.6,24.9,18.6,25.2,18.5z"></path>
        <path fill="#915D44" d="M24.3,18.2c-0.1,0-0.2-0.1,0-0.1c0.4,0.1,0.6-0.2,0.8,0.1c-0.1,0-0.1,0.1-0.1,0.1
          C24.9,18.1,24.5,18.3,24.3,18.2z"></path>
        <path fill="#B5733C" d="M25.3,18.1c0.3-0.3,0.6-0.4,1.1-0.1c0.2,0.3,0.4,0.3,0.7,0.4c0,0.1,0.1,0.2,0.1,0.1c0,0,0,0.1,0,0.2
          c-0.1,0.1-0.3,0.1-0.5,0.1c0.2,0.1,0.4,0.1,0.5,0c0,0.1-0.2,0.3-0.5,0.2c-0.1,0.2-0.3,0.3-0.6,0.2c-0.1,0-0.3-0.1-0.4-0.1
          c0.2,0.2,0.4,0.3,0.6,0.3c0.1,0.2,0.5,1.6,0.4,2.5c0,0.3-0.1,1-0.3,1.4c-0.1,0.2-0.2,0.2-0.3,0.4c-0.2,0.3-0.1,0.6-0.2,0.7
          c-0.6,0.1-0.6,1.8-1,1.8c-0.2-0.1-0.4-1,0-1.1c1-0.6,0.7-2.1,0.7-2c-0.2,0.8-0.1,1.6-0.6,1.5c-0.4-0.2-0.6,1.1-0.6,1.3
          c0,0.3-0.1,0.3-0.1,0.6c0,0.2-0.1,0.5-0.1,1c0,0.1,0,0.2,0,0.3c0.1,0.2,0.2,0.3,0.4,0.4c0.2,0.1,0.3,0.4,0.3,0.4
          c-0.1,0.1-0.2,0.2-0.5,0c0,0-0.1-0.1-0.1-0.2c-0.2,0-0.2-0.2-0.3-0.4c0-0.1-0.3-0.2-0.3-0.5c0-0.3,0.1-0.9,0.2-1.4
          c0.1-0.3,0.1-0.6,0.1-0.7c-0.1-0.2,0.2-0.2,0-0.4c-0.3-0.3-0.3-0.8,0.2-1.4c-0.1-0.1-0.1-0.2-0.2-0.3l0,0.4l-0.4,0.4
          c-0.4,0.1-1.1-0.1-1.4-0.5c-0.2-0.1-0.3-0.3-0.3-0.7c0-0.1-0.2,0-0.2,0c0.1,0.1-0.1,0.2,0,0.3c0,0.1,0.3,0.2,0.3,0.3l-0.1,0.6
          c0,0.4-0.3,0.8-0.7,1.2l-0.3,0.6c0,0.4,0.5,1.1,0.8,1.4c0.1,0.1,0.2,0.3,0.3,0.4c0.1,0,0.3,0.2,0.4,0.4c-0.1,0-0.4,0.1-0.7,0
          c-0.1-0.1-0.1-0.3,0-0.3c-0.2,0-0.3-0.1-0.4-0.2c-0.3-0.6-0.5-1.1-0.9-1.7c-0.1-0.1-0.1-0.3,0.1-0.5c0.3-0.7,0.4-1.3,0.2-1.6
          c-0.3-0.1-0.5-0.6-0.6-1.1c-0.1-0.6,0-1.2,0.3-1.4c0.3-0.3,0.8-0.5,1.3-0.4c0.7-0.3,2.2,0.1,2.5,0.3c0.4,0.1,0.6,0.6,0.9,0.5
          c0.2,0,0.4-0.2,0.4-0.5c0-2.1-0.5-2.3-0.5-2.7c0-0.1,0.1-0.2,0.2-0.2c-0.1-0.1-0.2-0.2-0.1-0.2C25.2,18.3,25.3,18.2,25.3,18.1z"></path>
        <path fill="#211915" d="M26.6,18.5c-0.2-0.1-0.2-0.2-0.5-0.1c-0.2,0.1-0.2,0.1-0.2,0.2c0.1-0.1,0.1-0.1,0.2-0.1c0.1,0.1,0.3,0,0.3,0
          C26.4,18.4,26.5,18.5,26.6,18.5z"></path>
        <path fill="#B5733C" d="M24.9,24.7c0.1,0.2,0.1,0.3-0.1,0.6c0.1,0.2,0.2,0.5-0.1,0.8c0.2,0.4-0.1,0.6-0.1,1c0.1,0.3,0.3,0.3,0.3,0.5
          c0.3,0,0.5,0.1,0.5,0.3c0,0-0.1-0.1-0.1,0c0.1,0.1,0.1,0.1,0.1,0.1c-0.1,0-0.2,0.1-0.4,0.1c-0.1,0-0.2,0-0.2-0.2c0,0,0-0.1,0-0.2
          c-0.3-0.1-0.4-0.2-0.4-0.5c0,0.1-0.1,0.2-0.1,0.2c-0.1-0.1-0.2-0.2-0.1-0.4c0.1-0.5,0.1-0.8,0.1-1.2C24.4,25,24.6,24.9,24.9,24.7z"></path>
        <path fill="#BF9262" d="M19.9,22c0,0.1-0.1,0.3-0.2,0.5c0.1,0,0.2,0,0.2-0.1c-0.1,0.2-0.1,0.3-0.2,0.4c0.1,0,0.1,0,0.2-0.1
          c0,0,0,0.1,0,0.1c0,0.1-0.1,0.2-0.1,0.3c-0.1,0-0.1,0.2-0.1,0.3c-0.1-0.2-0.2-0.4-0.1-0.8c-0.1-0.1,0-0.3,0.1-0.4
          c0,0-0.1,0.1-0.1,0.1c0-0.2,0.1-0.4,0.2-0.6c0.1-0.1,0.2-0.1,0.3,0.1c0,0.1,0,0.1-0.2,0.2C19.8,22,19.8,22,19.9,22z"></path>
        <path fill="#807258" d="M20.8,23.6c0,0.5,0.1,0.8,0.1,1.2c0,0.4-0.2,0.8-0.4,1.2c0.1-0.1,0.1-0.2,0.2-0.2c0-0.3,0.2-0.4,0.3-0.7
          c0.1-0.2,0.2-0.5,0.1-0.7C21,24.2,20.9,23.9,20.8,23.6z"></path>
        <path fill="#B5733C" d="M19.8,26c0,0.1,0,0.2,0,0.3c0.1,0.5,0.2,1,0.4,1.3c0.1,0.1,0.2,0.2,0.2,0.2c0.1,0.1,0.1,0.1,0.2,0.2
          c0.2,0.1,0.4,0.3,0.5,0.4c-0.2,0.1-0.5,0.1-0.7,0c-0.1-0.1-0.1-0.3-0.2-0.4c0,0-0.1-0.1-0.1-0.1c-0.1,0-0.4-0.2-0.4-0.3
          c0-0.7-0.2-1.2-0.3-1.9c-0.1-0.3-0.1-0.5,0.1-0.6c0.2-0.2,0.4-0.4,0.6-0.6c0.2-0.2,0.3-0.4,0.3-0.7c0.1,0.2,0.2,0.4,0.2,0.6
          c0.1,0.3,0,0.6-0.1,0.9C20.2,25.5,20,25.8,19.8,26z"></path>
        <path fill="#807258" d="M20.2,24.3c0,0.6-0.7,1-0.8,1.6c0-0.2-0.1-0.4,0.1-0.7C19.8,24.9,20,24.6,20.2,24.3z"></path>
        <path fill="#807258" d="M19.6,24.8c-0.1,0.2-0.2,0.3-0.2,0.5c0-0.1-0.1-0.2,0-0.3C19.4,24.8,19.5,24.8,19.6,24.8z"></path>
        <path fill="#211915" d="M29.5,15.9c1.2,0.2,1.8,0,2-0.5c0.1,0.3,2.4-0.4,2.1-1c0.8-0.2,1.1-0.8,1.2-1.3c0-0.1-0.4,0.2-0.5,0.1
          c0.4-0.4,0.8-1.5,0.2-2.2c0-1.2-0.4-2-1-2.1c0,0.1,0.1,1.4,0,0.8c-0.1-0.6-1.1-1.5-1.6-1.7c-0.4-0.7-1.4-0.9-2.3-0.8
          c-0.3-0.1-0.5,0-0.9,0.1c-0.4-0.2-1.3-0.3-1.6,0c-0.5-0.2-0.6-0.1-1.1,0C25.1,7.2,25,7.4,24.4,8c-0.4,0-1.1,0.5-1.3,1.2
          c-0.4,0.4-1,0.8-1,1.6c-0.6,0.6-0.2,1.8-0.1,2.1c-0.2,1.7,0.4,1.5,1,1.7c0,1,1.3,0.6,1.9,1.1c0.7,0.8,1.2,0.6,3.5,0.1
          C28.9,15.9,29.2,15.9,29.5,15.9L29.5,15.9z M28.3,14.7C28,14.4,27.4,14,27,14c-0.5,0.1-0.7,0-1.1-0.2c-0.2-0.5-0.9-0.7-1.1-1.1
          c-0.1-0.4,0-0.3-0.3-0.8c0.4-0.4,0.5-1,0.5-1.6c0.5,0.1,1.1-0.1,1.3-0.5c0.4,0,0.9-0.2,1.3-0.3c0.4,0.3,0.7,0.4,0.9,0
          c0.4,0.4,0.7,0.2,1.1,0.1c0.5,0.4,1,0.7,1.5,0.7c0.1,0.5,0.4,1.1,1.1,1.6c-0.3,0.4-0.4,0.7-0.4,1.1C31,12.9,30.5,13.3,30,14
          C29.4,13.9,28.8,14,28.3,14.7L28.3,14.7z"></path>
        <path fill="#009045" d="M28.7,7.5C30,7,30.2,7.9,30.8,8C30,8.4,29.2,7.6,28.7,7.5z"></path>
        <path fill="#009045" d="M30,7.3c1.5-0.2,1.5,0.8,2.1,1C31.1,8.5,30.5,7.4,30,7.3z"></path>
        <path fill="#009045" d="M28.2,9.1C29.6,9.9,30,8.9,30.6,9C29.8,8.3,28.7,9.1,28.2,9.1z"></path>
        <path fill="#009045" d="M30,9.4c1.2,1.1,1.7,0.2,2.4,0.4C31.7,9,30.5,9.5,30,9.4z"></path>
        <path fill="#009045" d="M28.1,8.2c1.3,0.9,1.7,0.4,2.7,0.2C29.7,7.9,29,7.8,28.1,8.2z"></path>
        <path fill="#009045" d="M30.2,8.2c0.9,1.3,1,0.8,2,0.9C31.4,8.4,31.2,8.2,30.2,8.2z"></path>
        <path fill="#009045" d="M31.8,8.1c1.9,0.7,1.2,1.6,1.8,2.2C32.3,10,32.2,8.5,31.8,8.1z"></path>
        <path fill="#009045" d="M31.9,9.6c-0.1,1.1,0.8,1.2,1.8,1.8C33.4,10.5,33,10,31.9,9.6z"></path>
        <path fill="#009045" d="M33.7,9.2c0.9,1.8-0.3,2-0.2,2.8C32.8,10.9,33.8,9.8,33.7,9.2z"></path>
        <path fill="#009045" d="M31.6,10.6c0.5,1.5,0.7,1,1.7,1.5C32.7,11.1,32.5,10.9,31.6,10.6z"></path>
        <path fill="#009045" d="M33.7,13.9c-0.7-1.9,0.7-1.9,0.7-2.7C35.1,12.4,33.8,13.3,33.7,13.9z"></path>
        <path fill="#009045" d="M32.3,14.3c1.4-1.2,0.1-1.7,0.4-2.3C31.6,12.6,32.4,13.8,32.3,14.3z"></path>
        <path fill="#009045" d="M33.5,11.6c-1,1.2-0.4,1.2-0.3,2.2C33.7,12.7,33.8,12.5,33.5,11.6z"></path>
        <path fill="#009045" d="M32.3,14.6c0.7-1.7,1.8-0.9,2.3-1.4C34.4,14.4,32.8,14.3,32.3,14.6z"></path>
        <path fill="#009045" d="M31.2,14.6c0.6-1.1,1-0.8,1.7-0.9C32.3,14.7,31.8,14.9,31.2,14.6z"></path>
        <path fill="#009045" d="M30.7,14.9c1.3-1.2,2-0.1,2.7-0.3C32.7,15.5,31.3,14.8,30.7,14.9z"></path>
        <path fill="#009045" d="M30.2,14.5c0.5-1.9,1.8-0.9,2.3-1.4C32.3,14.5,30.6,14.1,30.2,14.5z"></path>
        <path fill="#009045" d="M29.7,15.1c0.9-0.9,1.1-0.6,1.9-0.4C30.7,15.4,30.2,15.5,29.7,15.1z"></path>
        <path fill="#009045" d="M28.3,15.3c0.5-1.9,1.8-0.9,2.3-1.4C30.5,15.3,28.8,14.9,28.3,15.3z"></path>
        <path fill="#009045" d="M28.6,15.4c1.5-1,2,0.2,2.7,0.1C30.5,16.3,29.2,15.4,28.6,15.4z"></path>
        <path fill="#009045" d="M27.5,7.7c-1.3-0.5-1.5,0.4-2.1,0.5C26.2,8.6,27.1,7.7,27.5,7.7z"></path>
        <path fill="#009045" d="M26.5,7.4c-1.5-0.2-1.5,0.8-2.1,1C25.4,8.7,26.1,7.6,26.5,7.4z"></path>
        <path fill="#009045" d="M28.3,9.2c-1.4,0.8-1.7-0.2-2.4-0.1C26.7,8.5,27.8,9.3,28.3,9.2z"></path>
        <path fill="#009045" d="M26.5,9.5c-1.2,1.1-1.7,0.2-2.4,0.4C24.8,9.1,26,9.7,26.5,9.5z"></path>
        <path fill="#009045" d="M28.4,8.3c-1.3,0.9-1.7,0.4-2.7,0.2C26.8,8.1,27.5,8,28.4,8.3z"></path>
        <path fill="#009045" d="M26.3,8.4c-0.9,1.3-1,0.7-2,0.9C25.1,8.5,25.4,8.4,26.3,8.4z"></path>
        <path fill="#009045" d="M24.7,8.2c-1.9,0.7-1.2,1.6-1.8,2.2C24.2,10.1,24.3,8.6,24.7,8.2z"></path>
        <path fill="#009045" d="M24.6,9.7c0.1,1.1-0.8,1.2-1.8,1.8C23.1,10.7,23.6,10.2,24.6,9.7z"></path>
        <path fill="#009045" d="M23,9.5c-1.4,1.5-0.3,2-0.6,2.7C23.4,11.5,22.8,10.1,23,9.5z"></path>
        <path fill="#009045" d="M24.8,10.6c-0.3,1.6-0.6,1.1-1.4,1.7C23.8,11.2,23.9,11,24.8,10.6z"></path>
        <path fill="#009045" d="M22.8,13.8c0.7-1.9-0.7-1.9-0.7-2.7C21.4,12.2,22.7,13.1,22.8,13.8z"></path>
        <path fill="#009045" d="M24,14.4c-1.1-1.5,0.3-1.7,0.2-2.4C25.1,12.9,24,13.8,24,14.4z"></path>
        <path fill="#009045" d="M23.1,11.7c1,1.2,0.4,1.2,0.3,2.2C22.8,12.9,22.8,12.6,23.1,11.7z"></path>
        <path fill="#009045" d="M24.2,14.9c-0.5-1.7-1.7-1.1-2.2-1.6C22.2,14.4,23.7,14.5,24.2,14.9z"></path>
        <path fill="#009045" d="M25.3,14.8c-0.6-1.1-1-0.8-1.7-0.9C24.2,14.8,24.7,15,25.3,14.8z"></path>
        <path fill="#009045" d="M25.8,15.1c-1.3-1.2-2-0.1-2.7-0.3C23.9,15.7,25.2,14.9,25.8,15.1z"></path>
        <path fill="#009045" d="M25.6,15.1c0.7-1.6-0.7-1.6-0.8-2.2C24.1,13.9,25.5,14.6,25.6,15.1z"></path>
        <path fill="#009045" d="M26.8,15.3c-0.9-0.9-1.1-0.6-1.9-0.4C25.8,15.6,26.4,15.6,26.8,15.3z"></path>
        <path fill="#009045" d="M28.2,15.5c-0.5-1.9-1.8-0.9-2.3-1.4C26,15.4,27.7,15.1,28.2,15.5z"></path>
        <path fill="#009045" d="M27.9,15.6c-1.5-1-2,0.2-2.7,0.1C26.1,16.5,27.3,15.5,27.9,15.6z"></path>
        <path fill="#009045" d="M28.7,7.6c-1.3,0.9-1.2,0.4-2.2,0.2C27.5,7.3,27.8,7.3,28.7,7.6z"></path>
      </g>
      <g id="ministerio">
        <path fill="#FFFFFF" d="M129,31.6l-2.9-8.4H126c0.1,1.2,0.1,2.4,0.1,3.5v4.9h-1.5v-10h2.3l2.8,8h0l2.9-8h2.3v10h-1.6v-4.9
          c0-0.5,0-1.1,0-1.9c0-0.8,0-1.3,0.1-1.5h-0.1l-3,8.3H129z"></path>
        <path fill="#FFFFFF" d="M137.3,22.1c0-0.3,0.1-0.5,0.2-0.7c0.2-0.2,0.4-0.2,0.7-0.2c0.3,0,0.5,0.1,0.7,0.2c0.2,0.2,0.2,0.4,0.2,0.7
          c0,0.3-0.1,0.5-0.2,0.6c-0.2,0.2-0.4,0.2-0.7,0.2c-0.3,0-0.5-0.1-0.7-0.2C137.4,22.5,137.3,22.3,137.3,22.1z M139,31.6h-1.6v-7.6
          h1.6V31.6z"></path>
        <path fill="#FFFFFF" d="M148,31.6h-1.6V27c0-0.6-0.1-1-0.4-1.3c-0.2-0.3-0.6-0.4-1.1-0.4c-0.7,0-1.2,0.2-1.5,0.6
          c-0.3,0.4-0.5,1.1-0.5,2v3.8h-1.6v-7.6h1.3l0.2,1h0.1c0.2-0.4,0.6-0.6,1-0.8c0.4-0.2,0.9-0.3,1.4-0.3c1.8,0,2.7,0.9,2.7,2.8V31.6z"></path>
        <path fill="#FFFFFF" d="M150.1,22.1c0-0.3,0.1-0.5,0.2-0.7c0.2-0.2,0.4-0.2,0.7-0.2c0.3,0,0.5,0.1,0.7,0.2c0.2,0.2,0.2,0.4,0.2,0.7
          c0,0.3-0.1,0.5-0.2,0.6c-0.2,0.2-0.4,0.2-0.7,0.2c-0.3,0-0.5-0.1-0.7-0.2C150.2,22.5,150.1,22.3,150.1,22.1z M151.8,31.6h-1.6v-7.6
          h1.6V31.6z"></path>
        <path fill="#FFFFFF" d="M159.2,29.5c0,0.7-0.3,1.3-0.8,1.7c-0.5,0.4-1.3,0.6-2.3,0.6c-1,0-1.8-0.2-2.4-0.5v-1.4
          c0.9,0.4,1.7,0.6,2.5,0.6c1,0,1.5-0.3,1.5-0.9c0-0.2-0.1-0.4-0.2-0.5c-0.1-0.1-0.3-0.3-0.5-0.4s-0.6-0.3-1-0.5
          c-0.9-0.3-1.5-0.7-1.8-1s-0.5-0.8-0.5-1.3c0-0.6,0.3-1.2,0.8-1.5c0.5-0.4,1.2-0.5,2.1-0.5c0.9,0,1.7,0.2,2.5,0.5l-0.5,1.2
          c-0.8-0.3-1.5-0.5-2.1-0.5c-0.8,0-1.3,0.2-1.3,0.7c0,0.2,0.1,0.4,0.3,0.6c0.2,0.2,0.7,0.4,1.4,0.7c0.6,0.2,1.1,0.5,1.4,0.7
          c0.3,0.2,0.5,0.4,0.6,0.7C159.2,28.8,159.2,29.1,159.2,29.5z"></path>
        <path fill="#FFFFFF" d="M163.8,30.5c0.4,0,0.8-0.1,1.2-0.2v1.2c-0.2,0.1-0.4,0.1-0.7,0.2c-0.3,0.1-0.6,0.1-0.9,0.1
          c-1.5,0-2.3-0.8-2.3-2.4v-4.1h-1v-0.7l1.1-0.6l0.5-1.6h1v1.7h2.2v1.2h-2.2v4.1c0,0.4,0.1,0.7,0.3,0.9
          C163.2,30.4,163.5,30.5,163.8,30.5z"></path>
        <path fill="#FFFFFF" d="M169.8,31.8c-1.2,0-2.1-0.3-2.8-1c-0.7-0.7-1-1.6-1-2.8c0-1.2,0.3-2.2,0.9-2.9c0.6-0.7,1.5-1.1,2.5-1.1
          c1,0,1.8,0.3,2.4,0.9s0.9,1.4,0.9,2.5v0.9h-5c0,0.7,0.2,1.3,0.6,1.7s0.9,0.6,1.6,0.6c0.4,0,0.9,0,1.3-0.1c0.4-0.1,0.8-0.2,1.2-0.4
          v1.3c-0.4,0.2-0.8,0.3-1.2,0.4S170.3,31.8,169.8,31.8z M169.5,25.1c-0.5,0-0.9,0.2-1.2,0.5c-0.3,0.3-0.5,0.8-0.6,1.4h3.4
          c0-0.6-0.2-1.1-0.5-1.4S170,25.1,169.5,25.1z"></path>
        <path fill="#FFFFFF" d="M178.4,23.9c0.3,0,0.6,0,0.8,0.1l-0.2,1.5c-0.2-0.1-0.5-0.1-0.7-0.1c-0.6,0-1.2,0.2-1.6,0.6
          c-0.4,0.4-0.6,1-0.6,1.6v4h-1.6v-7.6h1.3l0.2,1.3h0.1c0.3-0.5,0.6-0.8,1-1.1C177.5,24.1,177.9,23.9,178.4,23.9z"></path>
        <path fill="#FFFFFF" d="M180.5,22.1c0-0.3,0.1-0.5,0.2-0.7c0.2-0.2,0.4-0.2,0.7-0.2c0.3,0,0.5,0.1,0.7,0.2c0.2,0.2,0.2,0.4,0.2,0.7
          c0,0.3-0.1,0.5-0.2,0.6c-0.2,0.2-0.4,0.2-0.7,0.2c-0.3,0-0.5-0.1-0.7-0.2C180.6,22.5,180.5,22.3,180.5,22.1z M182.2,31.6h-1.6v-7.6
          h1.6V31.6z"></path>
        <path fill="#FFFFFF" d="M191.2,27.8c0,1.2-0.3,2.2-1,2.9c-0.6,0.7-1.5,1-2.6,1c-0.7,0-1.3-0.2-1.9-0.5c-0.5-0.3-1-0.8-1.3-1.4
          c-0.3-0.6-0.4-1.3-0.4-2.1c0-1.2,0.3-2.2,0.9-2.9c0.6-0.7,1.5-1,2.7-1c1.1,0,2,0.4,2.6,1.1C190.9,25.7,191.2,26.6,191.2,27.8z
          M185.7,27.8c0,1.7,0.6,2.6,1.9,2.6c1.3,0,1.9-0.9,1.9-2.6c0-1.7-0.6-2.6-1.9-2.6c-0.7,0-1.2,0.2-1.5,0.7
          C185.9,26.4,185.7,27,185.7,27.8z"></path>
        <path fill="#FFFFFF" d="M127,48.6c-0.9,0-1.7-0.3-2.2-1s-0.8-1.6-0.8-2.9c0-1.2,0.3-2.2,0.8-2.9s1.3-1,2.2-1c1,0,1.8,0.4,2.3,1.1h0.1
          c-0.1-0.5-0.1-1-0.1-1.3v-2.8h1.6v10.7h-1.3l-0.3-1h-0.1C128.8,48.2,128,48.6,127,48.6z M127.5,47.3c0.7,0,1.1-0.2,1.4-0.6
          c0.3-0.4,0.5-1,0.5-1.8v-0.2c0-1-0.2-1.6-0.5-2c-0.3-0.4-0.8-0.6-1.5-0.6c-0.6,0-1,0.2-1.3,0.7c-0.3,0.5-0.5,1.1-0.5,2
          c0,0.8,0.1,1.5,0.4,1.9S126.9,47.3,127.5,47.3z"></path>
        <path fill="#FFFFFF" d="M136.5,48.6c-1.2,0-2.1-0.3-2.8-1c-0.7-0.7-1-1.6-1-2.8c0-1.2,0.3-2.2,0.9-2.9s1.5-1.1,2.5-1.1
          c1,0,1.8,0.3,2.4,0.9c0.6,0.6,0.9,1.4,0.9,2.5V45h-5c0,0.7,0.2,1.3,0.6,1.7s0.9,0.6,1.6,0.6c0.4,0,0.9,0,1.3-0.1
          c0.4-0.1,0.8-0.2,1.2-0.4v1.3c-0.4,0.2-0.8,0.3-1.2,0.4S137,48.6,136.5,48.6z M136.2,42c-0.5,0-0.9,0.2-1.2,0.5
          c-0.3,0.3-0.5,0.8-0.6,1.4h3.4c0-0.6-0.2-1.1-0.5-1.4C137.1,42.1,136.7,42,136.2,42z"></path>
        <path fill="#FFFFFF" d="M151.3,48.5l-1-2.8h-3.8l-1,2.8h-1.7l3.7-10h1.8l3.7,10H151.3z M149.9,44.3l-0.9-2.7c-0.1-0.2-0.2-0.5-0.3-0.9
          s-0.2-0.7-0.3-0.9c-0.1,0.6-0.3,1.2-0.5,1.8l-0.9,2.6H149.9z"></path>
        <path fill="#FFFFFF" d="M160.6,40.9v0.9l-1.3,0.2c0.1,0.2,0.2,0.4,0.3,0.6s0.1,0.5,0.1,0.7c0,0.8-0.3,1.4-0.8,1.8
          c-0.5,0.4-1.3,0.7-2.2,0.7c-0.2,0-0.5,0-0.7-0.1c-0.3,0.2-0.5,0.5-0.5,0.8c0,0.2,0.1,0.3,0.2,0.4s0.5,0.1,0.9,0.1h1.3
          c0.8,0,1.5,0.2,1.9,0.5c0.4,0.4,0.7,0.9,0.7,1.5c0,0.9-0.4,1.5-1.1,2c-0.7,0.5-1.7,0.7-3.1,0.7c-1,0-1.8-0.2-2.4-0.5
          s-0.8-0.9-0.8-1.6c0-0.5,0.1-0.9,0.4-1.2c0.3-0.3,0.7-0.5,1.2-0.7c-0.2-0.1-0.4-0.2-0.5-0.4c-0.1-0.2-0.2-0.4-0.2-0.6
          c0-0.3,0.1-0.5,0.2-0.7c0.2-0.2,0.4-0.4,0.7-0.6c-0.4-0.2-0.7-0.4-1-0.8s-0.4-0.8-0.4-1.3c0-0.8,0.3-1.5,0.8-1.9
          c0.5-0.5,1.3-0.7,2.2-0.7c0.2,0,0.4,0,0.7,0c0.2,0,0.4,0.1,0.5,0.1H160.6z M154.6,49.6c0,0.3,0.2,0.6,0.5,0.8
          c0.3,0.2,0.8,0.3,1.3,0.3c0.9,0,1.5-0.1,2-0.4c0.4-0.3,0.6-0.6,0.6-1c0-0.3-0.1-0.6-0.4-0.7c-0.2-0.1-0.7-0.2-1.3-0.2h-1.2
          c-0.5,0-0.8,0.1-1.1,0.3S154.6,49.3,154.6,49.6z M155.3,43.3c0,0.5,0.1,0.8,0.4,1.1c0.2,0.3,0.6,0.4,1.1,0.4c0.9,0,1.4-0.5,1.4-1.5
          c0-0.5-0.1-0.9-0.3-1.1c-0.2-0.3-0.6-0.4-1.1-0.4c-0.5,0-0.8,0.1-1.1,0.4S155.3,42.8,155.3,43.3z"></path>
        <path fill="#FFFFFF" d="M165.8,40.7c0.3,0,0.6,0,0.8,0.1l-0.2,1.5c-0.2-0.1-0.5-0.1-0.7-0.1c-0.6,0-1.2,0.2-1.6,0.6s-0.6,1-0.6,1.6v4
          H162v-7.6h1.3l0.2,1.3h0.1c0.3-0.5,0.6-0.8,1-1.1C164.9,40.9,165.4,40.7,165.8,40.7z"></path>
        <path fill="#FFFFFF" d="M167.9,38.9c0-0.3,0.1-0.5,0.2-0.7c0.2-0.2,0.4-0.2,0.7-0.2c0.3,0,0.5,0.1,0.7,0.2s0.2,0.4,0.2,0.7
          c0,0.3-0.1,0.5-0.2,0.6s-0.4,0.2-0.7,0.2c-0.3,0-0.5-0.1-0.7-0.2C168,39.4,167.9,39.2,167.9,38.9z M169.7,48.5H168v-7.6h1.6V48.5z"></path>
        <path fill="#FFFFFF" d="M175,48.6c-1.1,0-2-0.3-2.6-1c-0.6-0.7-0.9-1.6-0.9-2.9c0-1.3,0.3-2.3,0.9-2.9s1.5-1,2.7-1
          c0.8,0,1.5,0.1,2.2,0.4l-0.5,1.3c-0.7-0.3-1.2-0.4-1.7-0.4c-1.3,0-2,0.9-2,2.6c0,0.8,0.2,1.5,0.5,1.9s0.8,0.6,1.4,0.6
          c0.7,0,1.4-0.2,2-0.5v1.4c-0.3,0.2-0.6,0.3-0.9,0.4S175.5,48.6,175,48.6z"></path>
        <path fill="#FFFFFF" d="M184.2,48.5l-0.2-1h-0.1c-0.2,0.4-0.5,0.6-1,0.8c-0.4,0.2-0.9,0.3-1.4,0.3c-0.9,0-1.6-0.2-2.1-0.7
          c-0.5-0.5-0.7-1.1-0.7-2.1v-4.9h1.6v4.7c0,0.6,0.1,1,0.4,1.3c0.2,0.3,0.6,0.4,1.1,0.4c0.7,0,1.2-0.2,1.5-0.6s0.5-1.1,0.5-2v-3.8
          h1.6v7.6H184.2z"></path>
        <path fill="#FFFFFF" d="M189.4,48.5h-1.6V37.8h1.6V48.5z"></path>
        <path fill="#FFFFFF" d="M194.5,47.3c0.4,0,0.8-0.1,1.2-0.2v1.2c-0.2,0.1-0.4,0.1-0.7,0.2c-0.3,0.1-0.6,0.1-0.9,0.1
          c-1.5,0-2.3-0.8-2.3-2.4v-4.1h-1v-0.7l1.1-0.6l0.5-1.6h1v1.7h2.2v1.2h-2.2v4.1c0,0.4,0.1,0.7,0.3,0.9
          C194,47.2,194.2,47.3,194.5,47.3z"></path>
        <path fill="#FFFFFF" d="M202.6,48.5l-0.2-1h-0.1c-0.2,0.4-0.5,0.6-1,0.8c-0.4,0.2-0.9,0.3-1.4,0.3c-0.9,0-1.6-0.2-2.1-0.7
          c-0.5-0.5-0.7-1.1-0.7-2.1v-4.9h1.6v4.7c0,0.6,0.1,1,0.4,1.3c0.2,0.3,0.6,0.4,1.1,0.4c0.7,0,1.2-0.2,1.5-0.6s0.5-1.1,0.5-2v-3.8
          h1.6v7.6H202.6z"></path>
        <path fill="#FFFFFF" d="M210,40.7c0.3,0,0.6,0,0.8,0.1l-0.2,1.5c-0.2-0.1-0.5-0.1-0.7-0.1c-0.6,0-1.2,0.2-1.6,0.6s-0.6,1-0.6,1.6v4
          h-1.6v-7.6h1.3l0.2,1.3h0.1c0.3-0.5,0.6-0.8,1-1.1C209.1,40.9,209.5,40.7,210,40.7z"></path>
        <path fill="#FFFFFF" d="M216.9,48.5l-0.3-1.1h-0.1c-0.4,0.5-0.7,0.8-1.1,0.9c-0.4,0.2-0.8,0.3-1.4,0.3c-0.7,0-1.3-0.2-1.7-0.6
          c-0.4-0.4-0.6-1-0.6-1.7c0-0.8,0.3-1.4,0.9-1.8c0.6-0.4,1.5-0.6,2.6-0.7l1.3,0v-0.4c0-0.5-0.1-0.8-0.3-1.1
          c-0.2-0.2-0.6-0.4-1.1-0.4c-0.4,0-0.8,0.1-1.1,0.2c-0.4,0.1-0.7,0.2-1,0.4l-0.5-1.2c0.4-0.2,0.9-0.4,1.3-0.5
          c0.5-0.1,0.9-0.2,1.4-0.2c1,0,1.7,0.2,2.2,0.6s0.7,1.1,0.7,2v5.1H216.9z M214.5,47.4c0.6,0,1.1-0.2,1.4-0.5s0.5-0.8,0.5-1.4v-0.7
          l-1,0c-0.8,0-1.3,0.2-1.7,0.4s-0.5,0.6-0.5,1c0,0.3,0.1,0.6,0.3,0.8C213.8,47.3,214.1,47.4,214.5,47.4z"></path>
        <path fill="#FFFFFF" d="M222.8,40.9h1.8l1.5,4.3c0.2,0.6,0.4,1.2,0.5,1.7h0.1c0-0.3,0.1-0.6,0.2-0.9c0.1-0.4,0.7-2.1,1.7-5.1h1.7
          l-3.2,8.6c-0.6,1.6-1.6,2.4-2.9,2.4c-0.4,0-0.7,0-1-0.1v-1.3c0.2,0.1,0.5,0.1,0.8,0.1c0.8,0,1.3-0.4,1.6-1.3l0.3-0.7L222.8,40.9z"></path>
        <path fill="#FFFFFF" d="M236.9,44.5v4h-1.6v-10h2.8c1.3,0,2.2,0.2,2.9,0.7c0.6,0.5,0.9,1.2,0.9,2.2c0,1.2-0.6,2.1-1.9,2.7l2.8,4.4
          h-1.9l-2.4-4H236.9z M236.9,43.1h1.1c0.8,0,1.3-0.1,1.7-0.4c0.3-0.3,0.5-0.7,0.5-1.3c0-0.6-0.2-1-0.6-1.2c-0.4-0.2-0.9-0.4-1.7-0.4
          h-1.1V43.1z"></path>
        <path fill="#FFFFFF" d="M244,38.9c0-0.3,0.1-0.5,0.2-0.7c0.2-0.2,0.4-0.2,0.7-0.2c0.3,0,0.5,0.1,0.7,0.2s0.2,0.4,0.2,0.7
          c0,0.3-0.1,0.5-0.2,0.6s-0.4,0.2-0.7,0.2c-0.3,0-0.5-0.1-0.7-0.2C244,39.4,244,39.2,244,38.9z M245.7,48.5H244v-7.6h1.6V48.5z"></path>
        <path fill="#FFFFFF" d="M251.3,48.6c-1.2,0-2.1-0.3-2.8-1c-0.7-0.7-1-1.6-1-2.8c0-1.2,0.3-2.2,0.9-2.9s1.5-1.1,2.5-1.1
          c1,0,1.8,0.3,2.4,0.9c0.6,0.6,0.9,1.4,0.9,2.5V45h-5c0,0.7,0.2,1.3,0.6,1.7s0.9,0.6,1.6,0.6c0.4,0,0.9,0,1.3-0.1
          c0.4-0.1,0.8-0.2,1.2-0.4v1.3c-0.4,0.2-0.8,0.3-1.2,0.4S251.8,48.6,251.3,48.6z M251,42c-0.5,0-0.9,0.2-1.2,0.5
          c-0.3,0.3-0.5,0.8-0.6,1.4h3.4c0-0.6-0.2-1.1-0.5-1.4C251.9,42.1,251.5,42,251,42z"></path>
        <path fill="#FFFFFF" d="M262.4,40.9v0.9l-1.3,0.2c0.1,0.2,0.2,0.4,0.3,0.6s0.1,0.5,0.1,0.7c0,0.8-0.3,1.4-0.8,1.8
          c-0.5,0.4-1.3,0.7-2.2,0.7c-0.2,0-0.5,0-0.7-0.1c-0.3,0.2-0.5,0.5-0.5,0.8c0,0.2,0.1,0.3,0.2,0.4s0.5,0.1,0.9,0.1h1.3
          c0.8,0,1.5,0.2,1.9,0.5c0.4,0.4,0.7,0.9,0.7,1.5c0,0.9-0.4,1.5-1.1,2c-0.7,0.5-1.7,0.7-3.1,0.7c-1,0-1.8-0.2-2.4-0.5
          c-0.5-0.4-0.8-0.9-0.8-1.6c0-0.5,0.1-0.9,0.4-1.2c0.3-0.3,0.7-0.5,1.2-0.7c-0.2-0.1-0.4-0.2-0.5-0.4c-0.1-0.2-0.2-0.4-0.2-0.6
          c0-0.3,0.1-0.5,0.2-0.7c0.2-0.2,0.4-0.4,0.7-0.6c-0.4-0.2-0.7-0.4-1-0.8c-0.2-0.4-0.4-0.8-0.4-1.3c0-0.8,0.3-1.5,0.8-1.9
          c0.5-0.5,1.3-0.7,2.2-0.7c0.2,0,0.4,0,0.7,0c0.2,0,0.4,0.1,0.5,0.1H262.4z M256.5,49.6c0,0.3,0.2,0.6,0.5,0.8
          c0.3,0.2,0.8,0.3,1.3,0.3c0.9,0,1.5-0.1,2-0.4c0.4-0.3,0.6-0.6,0.6-1c0-0.3-0.1-0.6-0.4-0.7c-0.2-0.1-0.7-0.2-1.3-0.2H258
          c-0.5,0-0.8,0.1-1.1,0.3S256.5,49.3,256.5,49.6z M257.2,43.3c0,0.5,0.1,0.8,0.4,1.1c0.2,0.3,0.6,0.4,1.1,0.4c0.9,0,1.4-0.5,1.4-1.5
          c0-0.5-0.1-0.9-0.3-1.1c-0.2-0.3-0.6-0.4-1.1-0.4c-0.5,0-0.8,0.1-1.1,0.4S257.2,42.8,257.2,43.3z"></path>
        <path fill="#FFFFFF" d="M270.5,44.7c0,1.2-0.3,2.2-1,2.9c-0.6,0.7-1.5,1-2.6,1c-0.7,0-1.3-0.2-1.9-0.5c-0.5-0.3-1-0.8-1.3-1.4
          c-0.3-0.6-0.4-1.3-0.4-2.1c0-1.2,0.3-2.2,0.9-2.9c0.6-0.7,1.5-1,2.7-1c1.1,0,2,0.4,2.6,1.1C270.2,42.5,270.5,43.5,270.5,44.7z
          M265,44.7c0,1.7,0.6,2.6,1.9,2.6c1.3,0,1.9-0.9,1.9-2.6c0-1.7-0.6-2.6-1.9-2.6c-0.7,0-1.2,0.2-1.5,0.7
          C265.2,43.2,265,43.8,265,44.7z"></path>
      </g>
    </svg>