<?xml version="1.0" encoding="utf-8"?>
<!-- Generator: Adobe Illustrator 22.0.1, SVG Export Plug-In . SVG Version: 6.00 Build 0)  -->
<svg version="1.1" id="grn" xmlns="http://www.w3.org/2000/svg" xmlns:xlink="http://www.w3.org/1999/xlink" x="0px" y="0px"
	 viewBox="0 0 580 580" style="enable-background:new 0 0 580 580;" xml:space="preserve">
<style type="text/css">
	.st0{fill:#050505;}
</style>
<path id="_x30_2_2_" class="st0" d="M555,489c-83.4-263.4-155.9-265.8-195.8-206.6c-40.9,60.7-73.7,161.4-89.4,206.6
	c143.8,0,142.6,7.3,145-18.1c1.4-14.4,7.1-33.2-13.1-35.5c-12.7-1.4-27.7-37.4-13.8-49c0.2-0.1-2.1-15.8,13.5-19.2
	c0.3-0.1,12.2-24.4,28.2-11.5c1.1,0.9,13.5-2.3,21.5,2.8c7.6,4.9,10.9,18.1,10.9,18.1c19.3,8.5,7.4,28.8,7.5,29
	c11.9,23-10.4,25.6-25.1,31.5c-13.5,5.4-17.3,5.9-17.4,30.4c0,22.6-2,22.4,26.5,21.4C525.8,486.5,555,489,555,489z"/>
<path id="_x30_1_2_" class="st0" d="M220.2,463.3c-44.2-0.3-18.6-84-18.6-84s21.1-1.7,30.8-6.5c13.9-7,23.1-17.1,27-28.5
	c3.6-10.7,12.1-25.5-3.8-34c-0.5-0.3,4.2-27.5-14.4-32.2c0,0,1.2-25.6-20.9-19.8c-1.4,0.4-11.6-23.3-33.5-12.1
	c-0.5,0.3-14.2-8.8-26.2,2.9c-0.5,0.5-10.1-4.8-24,5.7c-11.7,8.8-14,23.3-14,23.3c-24.4,16.3-11.6,47.7-12.2,47.9
	c-23.4,7.8,21.1,68,45.9,55.6c2.3-1.2,24.7,44.3,18.6,69.8c-2.4,10.1-15,11.5-22.2,11.5c-37.4,0.1-86.9-0.1-124.3,0.1
	C20,463,55.1,253.6,147,157.1c35.7-37.5,88.6-35.7,120.9,5.8C316.1,224.7,395,463,395,463s-128.2,0-174.7,0L220.2,463.3z"/>
</svg>
